<?xml version="1.0" encoding="UTF-8" standalone="no"?>
<!-- Created with Inkscape (http://www.inkscape.org/) -->
<svg
   xmlns:dc="http://purl.org/dc/elements/1.1/"
   xmlns:cc="http://web.resource.org/cc/"
   xmlns:rdf="http://www.w3.org/1999/02/22-rdf-syntax-ns#"
   xmlns:svg="http://www.w3.org/2000/svg"
   xmlns="http://www.w3.org/2000/svg"
   xmlns:sodipodi="http://sodipodi.sourceforge.net/DTD/sodipodi-0.dtd"
   xmlns:inkscape="http://www.inkscape.org/namespaces/inkscape"
   width="20"
   height="20">
  <g>
  <path
     id="path1"
     d="M 19.249999,9.9999998 C 19.249999,12.520759 18.240006,14.807055 16.602869,16.476015 C 14.923871,18.187669 12.585242,19.25 10.000004,19.25 C 7.427209,19.25 5.098657,18.197875 3.421425,16.500695 C 1.769999,14.829629 0.750001,12.533207 0.750001,9.9999998 C 0.750001,7.4368582 1.794247,5.1161302 3.480234,3.4403262 C 5.152877,1.7777852 7.457143,0.75000023 10.000004,0.75000023 C 12.557532,0.75000023 14.873712,1.7896802 16.548656,3.4691692 C 18.217676,5.1427072 19.249999,7.4515292 19.249999,9.9999998 z "
     style="fill:none;fill-opacity:1;fill-rule:evenodd;stroke:black;stroke-width:1.49999988;stroke-linecap:round;stroke-linejoin:round;stroke-miterlimit:4;stroke-opacity:1" />
  <path
     id="path2"
     d="M 19.249999,9.9999896 C 19.249999,12.547032 17.953929,16.004834 13.503709,13.480253 C 16.010279,17.981114 12.558949,19.249999 10.000009,19.249999 C 7.45884,19.249999 4.028656,18.013491 6.48718,13.559417 C 2.002417,15.969186 0.750001,12.56484 0.750001,9.9999896 C 0.750001,7.4323576 1.951627,3.9986261 6.40438,6.4792671 C 3.987045,2.0279821 7.46165,0.75000118 10.000009,0.75000118 C 12.575539,0.75000118 15.958469,2.0552231 13.536189,6.5524711 C 17.998669,4.0816801 19.249999,7.4695286 19.249999,9.9999896 z "
     style="fill:none;fill-opacity:1;fill-rule:evenodd;stroke:black;stroke-width:1.50000143;stroke-linecap:round;stroke-linejoin:round;stroke-miterlimit:4;stroke-opacity:1" />
  <path
     id="path3"
     d="M 19.25,10.00001 C 19.25,12.53876 13.511,13.48758 13.50368,13.48027 C 13.49637,13.47297 12.55004,19.25 9.99999,19.25 C 7.44994,19.25 6.49078,13.55581 6.48717,13.55943 C 6.48356,13.56304 0.75,12.56625 0.75,10.00001 C 0.75,7.4337408 6.40326,6.4781508 6.40436,6.4792608 C 6.40546,6.4803708 7.44305,0.74999983 9.99999,0.74999983 C 12.55693,0.74999983 13.53227,6.5563608 13.53616,6.5524708 C 13.54002,6.5486108 19.25,7.4612308 19.25,10.00001 z "
     style="fill:none;fill-opacity:1;fill-rule:evenodd;stroke:black;stroke-width:1.5000006;stroke-linecap:round;stroke-linejoin:round;stroke-miterlimit:4;stroke-opacity:1" />
  <path
     id="path4"
     d="M 19.250005,10.01365 C 19.250005,11.58746 16.209945,16.19099 12.188995,12.16411 C 16.200925,16.18195 11.606105,19.25 10.027255,19.25 C 8.459395,19.25 3.906205,16.17252 7.859865,12.21302 C 3.901745,16.17698 0.749995,11.59845 0.749995,10.01365 C 0.749995,8.4271108 3.867305,3.8908798 7.808785,7.8381809 C 3.868655,3.8922398 8.461095,0.74999983 10.027255,0.74999983 C 11.616325,0.74999983 16.184095,3.9025198 12.209035,7.8834308 C 16.188865,3.8977298 19.250005,8.4500708 19.250005,10.01365 z "
     style="fill:none;fill-opacity:1;fill-rule:evenodd;stroke:black;stroke-width:1.5000006;stroke-linecap:round;stroke-linejoin:round;stroke-miterlimit:4;stroke-opacity:1" />
  <path
     id="path5"
     d="M 19.22188,9.997148 C 19.22188,12.538184 19.99039,19.970825 13.49225,13.469194 C 19.9758,19.956231 12.55023,19.225276 9.9987004,19.225276 C 7.4649202,19.225276 0.10666717,19.940996 6.4960602,13.548175 C 0.099467169,19.948196 0.77554317,12.555931 0.77554317,9.997148 C 0.77554317,7.43561 0.043785169,0.11162705 6.4135002,6.484759 C 0.045992169,0.11382405 7.4677102,0.76907205 9.9987004,0.76907205 C 12.56677,0.76907205 19.94859,0.13040105 13.52462,6.5578 C 19.95632,0.12269205 19.22188,7.47268 19.22188,9.997148 z "
     style="fill:none;fill-opacity:1;fill-rule:evenodd;stroke:black;stroke-width:1.49999952;stroke-linecap:round;stroke-linejoin:round;stroke-miterlimit:4;stroke-opacity:1" />
  <path
     id="path6"
     d="M 19.250005,10.000005 C 19.250005,12.547045 13.503704,19.953505 13.503704,13.480285 C 19.960485,13.480285 12.558945,19.249995 10.000005,19.249995 C 7.4588355,19.249995 0.0103855,13.559425 6.4871855,13.559425 C 6.4871855,19.976805 0.7499955,12.564855 0.7499955,10.000005 C 0.7499955,7.432365 6.4043655,0.052855073 6.4043655,6.479285 C 0.0203255,6.479285 7.4616255,0.75000508 10.000005,0.75000508 C 12.575535,0.75000508 19.948994,6.552485 13.536175,6.552485 C 13.536175,0.007915073 19.250005,7.469525 19.250005,10.000005 z "
     style="fill:none;fill-opacity:1;fill-rule:evenodd;stroke:black;stroke-width:1.5000006;stroke-linecap:round;stroke-linejoin:round;stroke-miterlimit:4;stroke-opacity:1" />
  <path
     id="path7"
     d="M 19.25,9.9999809 C 19.25,12.547039 10.00558,16.486579 10.00558,10.013379 C 16.46239,10.013379 12.55895,19.249999 9.9999997,19.249999 C 7.4588402,19.249999 3.5397302,10.030069 10.01651,10.030069 C 10.01651,16.447429 0.75000025,12.564829 0.75000025,9.9999809 C 0.75000025,7.4323509 9.9961698,3.5509809 9.9961698,9.9773709 C 3.6121602,9.9773709 7.4616402,0.75000084 9.9999997,0.75000084 C 12.57553,0.75000084 16.41964,10.019359 10.00683,10.019359 C 10.00683,3.4747709 19.25,7.4695009 19.25,9.9999809 z "
     style="fill:none;fill-opacity:1;fill-rule:evenodd;stroke:black;stroke-width:1.50000072;stroke-linecap:round;stroke-linejoin:round;stroke-miterlimit:4;stroke-opacity:1" />
  <path
     id="path8"
     d="M 18.0145,9.9786519 C 18.0145,14.284952 -2.8927782,5.5662519 1.3436518,1.3298519 C 5.5800608,-2.9065581 14.16226,17.993862 9.9992508,17.993862 C 5.8362408,17.993862 14.36162,-2.9732681 18.66772,1.3328319 C 22.97382,5.6389219 1.9840018,14.346012 1.9840018,9.9786519 C 1.9840018,5.6113119 22.94359,14.359362 18.65638,18.646532 C 14.3692,22.933702 5.6701908,1.9634619 9.9992508,1.9634619 C 14.32833,1.9634619 5.7032608,23.014372 1.3447018,18.655862 C -3.0138182,14.297332 18.0145,5.6723619 18.0145,9.9786519 z "
     style="fill:none;fill-opacity:1;fill-rule:evenodd;stroke:black;stroke-width:1.50000012;stroke-linecap:round;stroke-linejoin:round;stroke-miterlimit:4;stroke-opacity:1" />
  <path
     id="path9"
     d="M 18.552407,9.9848449 C 18.552407,12.341435 0.7500035,6.7391649 0.7500035,0.75000496 C 6.7246665,0.75000496 12.360987,18.543155 9.9931365,18.543155 C 7.6417365,18.543155 13.256836,0.75317496 19.249997,0.75317496 C 19.249997,6.6906749 1.4338325,12.357895 1.4338325,9.9848449 C 1.4338325,7.6092249 19.237907,13.294215 19.237907,19.240055 C 13.330587,19.240055 7.6443165,1.4265549 9.9931365,1.4265549 C 12.376357,1.4265549 6.6851065,19.249995 0.7511625,19.249995 C 0.7511625,13.194805 18.552407,7.6436049 18.552407,9.9848449 z "
     style="fill:none;fill-opacity:1;fill-rule:evenodd;stroke:black;stroke-width:1.49999964;stroke-linecap:round;stroke-linejoin:round;stroke-miterlimit:4;stroke-opacity:1" />
  </g>
</svg>
