<?xml version="1.0" encoding="UTF-8" standalone="no"?>
<!-- Created with Inkscape (http://www.inkscape.org/) -->
<svg
   xmlns:dc="http://purl.org/dc/elements/1.1/"
   xmlns:cc="http://creativecommons.org/ns#"
   xmlns:rdf="http://www.w3.org/1999/02/22-rdf-syntax-ns#"
   xmlns:svg="http://www.w3.org/2000/svg"
   xmlns="http://www.w3.org/2000/svg"
   xmlns:sodipodi="http://sodipodi.sourceforge.net/DTD/sodipodi-0.dtd"
   xmlns:inkscape="http://www.inkscape.org/namespaces/inkscape"
   id="svg2"
   sodipodi:version="0.32"
   inkscape:version="0.46"
   width="670.65869"
   height="781.18024"
   version="1.0"
   sodipodi:docname="cat.svg"
   inkscape:output_extension="org.inkscape.output.svg.inkscape">
  <metadata
     id="metadata7">
    <rdf:RDF>
      <cc:Work
         rdf:about="">
        <dc:format>image/svg+xml</dc:format>
        <dc:type
           rdf:resource="http://purl.org/dc/dcmitype/StillImage" />
      </cc:Work>
    </rdf:RDF>
  </metadata>
  <defs
     id="defs5" />
  <sodipodi:namedview
     inkscape:window-height="967"
     inkscape:window-width="1280"
     inkscape:pageshadow="2"
     inkscape:pageopacity="0.0"
     guidetolerance="10.0"
     gridtolerance="10.0"
     objecttolerance="10.0"
     borderopacity="1.0"
     bordercolor="#666666"
     pagecolor="#ffffff"
     id="base"
     showgrid="false"
     inkscape:zoom="1"
     inkscape:cx="376.54498"
     inkscape:cy="373.9152"
     inkscape:window-x="-4"
     inkscape:window-y="-4"
     inkscape:current-layer="svg2" />
  <path
     style="fill:#000000;fill-rule:evenodd"
     d="M 530.62121,630.89993 C 529.56137,632.38873 529.76056,632.99563 531.93386,634.89993 C 538.37823,640.54673 547.19429,651.40473 548.98389,658.53503 C 550.04397,662.75873 551.78215,663.66983 556.07633,662.25263 C 558.1085,661.58193 561.82242,661.44063 566.27404,661.50643 C 589.13487,661.84453 620.56448,673.36573 633.30404,686.07773 C 639.68006,692.43993 647.50424,705.83363 650.37792,715.30533 C 652.92094,723.68723 652.13428,735.36883 648.5705,742.14493 C 647.99198,743.24493 646.58472,745.89313 645.44326,748.02983 C 644.3018,750.16653 641.79288,753.09153 639.86788,754.52983 C 637.94288,755.96813 635.81969,757.81993 635.14968,758.64493 C 633.85684,759.74153 632.85395,759.75133 631.3276,761.09473 C 623.29383,768.54013 595.71455,776.14183 562.24425,780.13613 C 548.74848,781.53863 535.31556,781.46913 521.86788,780.28063 C 514.5577,779.67033 510.95904,779.17913 492.36788,776.25423 C 487.41788,775.47543 477.06788,773.89033 469.36788,772.73173 C 461.66788,771.57313 450.64288,769.91143 444.86788,769.03913 C 435.1278,767.56773 413.6405,762.70083 407.86788,760.65853 C 406.49288,760.17213 400.64288,758.36643 394.86788,756.64583 C 389.09288,754.92533 382.00538,752.80963 379.11788,751.94433 C 372.11389,748.37473 365.43032,746.89273 357.36788,746.22513 C 352.41788,745.93993 347.01788,745.46763 345.36788,745.17543 C 343.71788,744.88333 340.79288,744.39483 338.86788,744.09003 C 331.86216,744.26443 325.63095,739.77763 319.09991,738.64493 C 317.90403,738.64493 313.6083,736.68523 294.06933,727.22593 C 287.09621,723.67103 282.74795,717.29933 278.11788,711.79523 C 275.27746,708.79293 273.47766,706.38883 270.89349,702.14493 C 269.55387,699.94493 266.37185,695.21993 263.82234,691.64493 C 261.27282,688.06993 258.87217,684.46993 258.48754,683.64493 C 258.10292,682.81993 256.45261,679.89493 254.82019,677.14493 C 253.18777,674.39493 250.4072,669.21993 248.64116,665.64493 C 244.30907,658.50663 240.86544,651.00013 237.36788,643.40743 C 233.79288,635.99063 230.86788,629.47183 230.86788,628.92133 C 230.86788,628.37073 228.31595,627.62043 225.19692,627.25383 C 210.29252,625.50213 199.20509,615.36793 190.90736,595.91253 C 186.36697,585.26683 183.11611,580.07673 177.79313,574.97543 C 171.5086,568.95253 162.30186,563.93743 153.36788,561.67053 C 146.48172,559.92313 144.33382,559.61963 124.36788,557.57213 C 104.41925,555.52643 86.07026,550.20853 81.98777,545.28943 C 81.23714,544.38493 80.04824,543.64493 79.34578,543.64493 C 77.35567,543.64493 68.34881,533.25553 65.03533,527.13783 C 63.39247,524.10463 60.81509,517.01543 59.3078,511.38393 C 54.96597,495.16223 55.18969,479.36083 60.13945,452.64493 C 60.80181,449.06993 61.34917,441.41993 61.35581,435.64493 C 61.37319,420.53093 60.67982,419.39833 36.86774,395.64493 C 15.27693,374.10733 10.59236,367.62223 4.0299205,350.18583 C -2.2410695,333.52373 -1.2115695,320.46003 7.2463805,309.37093 C 19.49804,293.30793 47.66581,283.19893 69.51885,287.02223 C 81.43993,289.10783 89.87582,293.50833 99.09194,302.44853 C 109.61811,312.65953 121.61516,333.62373 127.38543,351.88983 C 134.67242,374.95723 135.0461,412.53553 128.22802,436.62353 C 125.07961,447.74673 120.01844,462.09223 116.48215,469.91643 C 115.67958,471.69213 114.02244,475.97203 112.79962,479.42733 C 109.88819,487.65403 110.72029,489.52223 119.06074,493.48463 C 124.98505,496.29923 130.11766,497.53313 157.36788,502.69403 C 179.14662,506.81863 191.71485,514.12263 202.95271,529.18563 C 208.06274,536.03503 216.86788,552.93173 216.86788,555.88823 C 216.86788,556.71973 217.5272,557.94723 218.33304,558.61603 C 219.58778,559.65743 219.72761,559.28003 219.30668,555.98853 C 218.01078,545.85493 218.07815,499.59493 219.40549,488.14493 C 223.07003,456.53343 230.95074,431.52753 243.15775,412.77773 C 252.71137,398.81393 261.5864,390.14983 272.75058,380.78943 C 273.6401,379.76883 277.06788,377.42933 280.36788,375.59053 C 283.66788,373.75173 286.59288,371.97153 286.86788,371.63453 C 287.61991,370.71303 299.588,365.97173 306.11788,364.00853 C 309.28038,363.05763 311.86788,361.93743 311.86788,361.51903 C 311.86788,361.10063 310.85538,360.05323 309.61788,359.19133 C 305.70038,356.46303 288.88635,339.38633 283.97206,333.14493 C 274.3404,320.91223 264.10373,303.11263 258.87687,289.50923 C 257.10928,284.90883 255.27309,280.24493 254.79646,279.14493 C 253.14925,275.34343 249.98093,256.09633 248.79697,242.69893 C 248.11298,234.95903 247.85717,223.07653 248.19418,214.69893 C 248.82799,198.94323 249.18478,195.72373 251.45562,185.26893 C 252.27706,181.48713 252.81835,178.28553 252.65851,178.15433 C 242.29631,171.39873 237.71504,156.06023 233.37529,145.14493 C 225.63837,124.47763 222.70989,105.31183 224.87074,89.485634 C 226.12667,80.287234 229.40659,65.269434 230.84203,62.144934 C 231.34739,61.044934 233.16399,56.544934 234.87893,52.144934 C 238.48319,42.897534 250.46339,19.667334 255.74985,11.675134 C 262.64339,1.2534343 271.67288,-3.1800657 274.47889,2.4791343 C 275.11544,3.7629343 276.1032,5.2802343 276.67392,5.8510343 C 279.82067,13.024834 283.22884,20.727334 286.37135,29.144934 C 289.44469,37.394934 292.57339,45.494934 293.32402,47.144934 C 294.07465,48.794934 296.786,57.068834 299.34925,65.531334 C 301.42393,69.690134 305.59664,90.957334 310.2182,88.228434 C 313.98489,85.399734 325.41723,79.656534 332.36788,77.101134 C 335.11788,76.090134 338.26788,74.727734 339.36788,74.073634 C 340.46788,73.419534 343.54243,72.608934 346.20022,72.272434 C 348.85801,71.935934 352.45801,70.988334 354.20022,70.166634 C 362.53335,66.236334 379.24117,65.582234 395.77573,68.539134 C 401.60141,69.580934 409.92597,70.972234 414.27474,71.630734 C 418.62351,72.289334 422.69615,73.025534 423.32505,73.266934 C 423.95395,73.508234 425.1882,72.229534 426.06783,70.425334 C 426.94746,68.621134 429.76786,64.669934 432.33538,61.644934 C 437.33803,55.750934 437.56124,55.474734 442.84499,48.641634 C 447.91506,43.498334 472.77891,7.9671343 481.23686,11.894934 C 482.9293,13.620334 488.86788,22.363634 488.86788,23.130034 C 488.86788,23.473634 490.5695,26.317534 492.64927,29.449834 C 497.38078,36.575934 501.09368,43.578534 503.83069,50.538334 C 504.99725,53.504634 511.03154,66.329634 517.24024,79.038334 C 534.325,114.00933 536.23028,120.71203 537.25837,149.46163 C 537.69441,161.65503 537.5715,162.94133 535.80123,164.71163 C 534.73789,165.77493 533.86788,166.92183 533.86788,167.26033 C 533.86788,167.59873 535.38828,171.12223 537.24656,175.09033 C 539.10483,179.05843 540.95488,183.39403 541.35779,184.72503 C 541.76069,186.05603 542.67293,188.49493 543.38497,190.14493 C 545.24967,194.46593 550.2892,210.59703 553.22594,221.64493 C 561.06805,251.14673 562.88325,282.34633 557.85125,301.14493 C 551.29027,325.65553 537.8944,347.50653 518.67576,365.04703 C 512.42012,370.75643 510.84316,373.64493 513.98177,373.64493 C 514.52949,373.64493 517.54043,375.40383 520.67275,377.55353 C 526.73146,381.71153 534.35007,389.26263 539.93483,396.64493 C 541.80719,399.11993 543.79559,401.65323 544.3535,402.27443 C 544.91141,402.89563 546.60026,405.49293 548.1065,408.04633 C 550.61236,412.29423 551.07979,412.62313 553.6065,411.91683 C 555.12526,411.49233 561.99288,411.18303 568.86788,411.22963 C 579.39183,411.30103 583.34393,411.81213 593.86788,414.46323 C 615.70038,419.96313 626.74879,425.63503 637.5203,436.87293 C 649.54003,449.41313 654.82813,460.30273 655.62003,474.14493 C 655.982,480.47223 655.65498,483.34273 654.05603,487.87343 C 649.06869,502.00533 633.84052,514.29143 615.33867,519.11053 C 604.18939,522.01453 590.46504,523.84443 582.44659,523.49603 C 574.36788,523.14493 574.36788,523.14493 573.23647,533.14493 C 572.95121,564.87463 557.7608,579.67023 546.36788,606.64493 C 545.39906,609.69703 559.78536,624.01653 563.30054,626.64493 C 563.99037,626.64493 567.06607,625.78093 570.13542,624.72493 C 573.20477,623.66893 579.91272,622.25943 585.04197,621.59283 C 593.02857,620.55483 595.89935,620.62203 605.03184,622.06103 C 638.7766,627.37813 659.40803,642.23393 667.74331,667.21683 C 670.50994,675.50913 671.50943,689.90963 669.85834,697.68993 C 668.8016,702.66943 667.81674,704.49853 664.46666,707.70283 C 659.73067,712.23293 659.06227,712.37233 655.50274,709.57233 C 652.41548,707.14393 652.05202,704.64493 654.78609,704.64493 C 658.60085,705.13563 659.02269,702.57353 660.78842,700.64493 C 662.98276,700.64493 664.09156,686.00753 662.72875,675.03043 C 661.518,665.27813 655.70447,653.63653 648.83753,647.21333 C 643.61413,642.32743 633.1527,636.89193 623.86788,634.23973 C 613.96927,631.41223 607.54128,630.57353 595.86788,630.58673 C 583.76678,630.60043 576.57207,632.05453 569.71103,635.87323 C 562.17539,640.79163 544.68146,619.51043 541.20189,613.56503 C 540.56729,610.39203 540.56729,610.39203 538.73982,612.76843 C 536.22147,617.38023 535.43583,622.47893 532.62121,627.08743 M 570.36788,770.69843 C 577.51788,769.61833 586.74288,767.99093 590.86788,767.08213 C 594.99288,766.17333 600.2779,765.04223 602.61237,764.56853 C 608.82271,763.30863 621.04165,758.00193 625.49792,754.62943 C 632.67534,752.10763 636.1304,745.51223 640.69613,740.64493 C 642.01508,740.64493 643.86788,731.06543 643.86788,724.24613 C 643.86788,718.87893 643.23415,716.69773 639.36539,708.74893 C 630.31711,690.15823 626.81845,687.26613 603.10867,678.77743 C 584.58607,672.14593 575.63019,670.43583 561.07946,670.75223 C 549.36788,671.00693 549.36788,671.00693 547.1352,667.57593 C 545.90723,665.68893 544.55723,663.67013 544.1352,663.08983 C 543.71317,662.50943 541.80981,659.00993 539.9055,655.31303 C 532.40448,640.75113 513.24273,625.87253 495.8436,621.10003 C 482.68942,617.49183 459.43907,618.66233 444.11207,623.70433 C 416.02971,632.94233 390.9862,656.77733 380.892,683.87373 C 379.81197,686.77293 377.7484,694.09493 376.30627,700.14493 C 373.24478,712.98853 373.42533,719.22433 377.17934,730.29913 C 380.71047,737.10613 378.08,737.30983 374.88319,741.36353 C 374.9223,743.35903 376.97699,744.41393 384.86788,746.49003 C 389.54288,747.71993 394.26788,749.13603 395.36788,749.63683 C 397.52216,750.61753 411.56674,754.41923 426.86788,758.16363 C 435.62569,760.30673 450.94418,762.87473 461.86788,764.03103 C 464.34288,764.29293 473.34288,765.64113 481.86788,767.02693 C 495.66529,769.26993 515.0057,771.88523 526.36788,773.04453 C 534.35675,773.85973 557.66988,772.61663 570.36788,770.69843 z M 367.32733,725.37363 C 364.06082,712.62343 365.2059,700.41553 371.34093,682.58373 C 377.37024,665.05923 385.15274,652.95403 399.07813,639.44023 C 407.76358,631.01143 416.13203,625.02563 426.36788,619.92043 C 439.88692,613.17763 450.36664,610.55753 469.87096,609.04413 C 474.54426,608.68153 478.51684,608.25683 478.6989,608.10053 C 476.77179,602.80753 477.7455,597.10423 478.31318,591.52343 C 480.06249,567.59123 494.21998,547.73353 509.6934,530.24503 C 521.23159,519.03493 538.7198,509.65263 554.92097,507.90553 C 562.43485,506.76783 566.33302,509.79773 572.92617,513.67473 C 578.09604,516.31213 582.39027,516.61153 593.41733,515.10323 C 613.91856,512.29903 626.0199,507.28083 636.26362,497.33553 C 644.86928,488.98063 647.28366,482.73403 646.57982,470.64493 C 646.26309,465.20493 645.34389,460.44713 644.0265,457.42893 C 641.49647,451.63243 634.64266,442.78433 630.75574,440.29673 C 629.16742,439.28023 627.86788,438.05043 627.86788,437.56373 C 627.86788,435.57053 608.85488,427.71623 596.86788,424.75763 C 569.68184,418.04753 557.7438,418.66363 546.07192,427.37913 C 544.0347,428.90033 541.54772,431.15743 540.5453,432.39493 C 538.30174,435.16463 535.74234,435.26873 533.40435,432.68523 C 530.87511,429.89043 532.01846,426.68013 537.45015,421.32513 C 542.75091,416.09923 542.91331,417.00243 534.43652,404.56553 C 527.66451,394.62983 519.19132,385.80853 511.15868,380.33133 C 504.51947,375.80433 504.37468,375.75923 502.38795,377.59833 C 499.45473,380.31353 484.71154,387.29293 474.86788,390.62623 C 467.42105,393.14793 464.68953,393.90223 457.86788,395.32043 C 446.59737,397.66363 415.24753,398.78003 403.3596,397.26153 C 400.61416,396.91083 395.99442,396.40943 393.09353,396.14733 C 390.19264,395.88523 386.81764,395.46263 385.59353,395.20813 C 367.6011,391.46773 358.52949,388.27833 338.44288,378.63073 C 329.51788,374.34413 329.51788,374.34413 319.94288,376.12373 C 294.67349,380.82053 283.8654,385.57173 267.82158,399.03613 C 260.99613,404.76423 249.20362,421.75293 243.28335,434.38673 C 235.41179,451.18453 232.41405,462.07063 227.79129,490.64493 C 226.21836,500.36763 225.58025,537.38463 226.77422,549.64493 C 227.39018,555.96993 228.13376,566.54493 228.42662,573.14493 C 228.67471,597.55923 236.51014,615.99343 242.59246,638.64493 C 246.13548,646.26453 246.81453,647.62873 256.8234,667.23523 C 264.53697,682.34543 285.13027,712.61453 292.32992,719.42463 C 304.04815,728.38363 319.01066,731.00803 332.36363,736.91463 C 333.4613,737.49443 340.4363,738.27493 347.86363,738.64903 C 355.29097,739.02323 362.04288,739.39343 362.86788,739.47183 C 369.57748,739.19933 368.12784,729.87333 367.32733,725.37363 z M 225.86788,617.71643 C 225.86788,617.20563 225.29196,616.19313 224.58806,615.46643 C 219.86502,610.58973 215.07579,594.51753 211.92056,572.95543 C 209.98821,559.75013 202.79216,543.21983 195.6694,535.62433 C 184.87814,524.11673 172.73916,518.18083 153.86788,515.18353 C 125.92224,510.74503 116.57249,507.43573 108.55481,499.14493 C 102.30366,492.68093 100.52043,489.17903 100.66194,483.64493 C 100.76487,479.61943 104.42976,467.27793 106.84001,462.84033 C 108.33703,460.08413 112.7927,448.10973 114.82292,441.38673 C 123.91663,411.27303 124.87928,388.09173 118.32124,357.14493 C 117.1729,351.72603 104.20449,324.64493 102.75786,324.64493 C 102.26837,324.64493 101.86788,324.06833 101.86788,323.36363 C 101.86788,320.86973 89.52866,309.95923 82.31274,306.07263 C 69.08417,298.94763 49.24382,299.39473 33.22314,307.17873 C 19.70501,314.16033 11.92753,323.68333 10.86788,338.75203 C 10.4176,345.15523 16.21752,355.51193 21.04351,363.14493 C 27.85724,373.92183 28.50511,374.62253 47.75275,392.03333 C 61.94397,404.87023 68.41352,413.96373 71.33497,425.17993 C 73.46891,433.37263 73.26219,439.89503 70.32083,457.17853 C 68.91995,465.41003 67.50794,478.06023 67.18302,485.29013 C 66.66351,496.84973 66.86753,499.56363 68.87452,507.79013 C 73.80426,527.99673 82.94626,538.78483 99.86788,544.36413 C 107.77244,546.97033 111.36736,547.52083 130.86788,549.11103 C 157.01439,551.24323 174.71161,557.45163 185.55658,568.29663 C 191.0135,573.75353 192.97043,576.82403 199.47099,590.12913 C 205.51569,602.50113 208.03418,606.56923 212.00677,610.37833 C 218.61703,616.71643 225.86788,620.55503 225.86788,617.71643 z M 445.29746,392.65373 C 460.54595,390.75883 479.13432,384.78923 489.86788,378.33993 C 514.00254,360.33123 529.38369,347.85543 544.22993,315.64493 C 544.49375,314.26993 545.37734,311.29743 546.19346,309.03933 C 548.51654,302.61153 550.80362,289.90933 551.2159,281.14493 C 552.00621,264.34473 548.07349,236.55003 542.23119,217.64493 C 540.27654,211.31993 538.06923,204.11993 537.32604,201.64493 C 532.70616,186.25963 525.96235,171.34553 518.10848,159.14493 C 512.72594,150.78343 502.32769,138.12293 497.11831,133.58813 C 495.05557,131.79243 487.60949,124.78563 480.57145,118.01743 C 450.79359,89.380934 439.58216,83.234534 406.86788,77.610834 C 397.79288,76.050834 387.89288,74.313134 384.86788,73.749234 C 381.34435,73.092434 376.94477,72.751134 372.86788,73.632634 C 326.63557,83.628434 311.33392,95.061734 295.209,116.50533 C 286.19891,128.48733 287.00334,131.18363 277.43634,150.37943 C 266.66123,171.99933 258.83833,205.97223 259.41422,228.64493 C 260.10692,255.91653 262.62722,276.48423 266.4697,286.22343 C 267.7887,289.56653 268.86788,292.56393 268.86788,292.88433 C 268.86788,296.10003 283.66917,322.80663 288.6871,328.64493 C 290.34161,330.56993 291.71227,332.36993 291.73301,332.64493 C 291.80564,333.60793 307.43125,349.16523 314.06349,354.87783 C 324.97267,363.59953 336.58235,370.34523 348.36788,377.44283 C 364.29911,385.44423 383.08163,390.91433 401.36788,392.87823 C 409.66274,393.76913 437.46507,393.62703 445.29746,392.65373 z M 434.36788,344.71623 C 430.10797,343.68823 426.83759,341.84903 423.26732,338.47363 C 420.16676,335.54233 420.16676,335.54233 415.36838,338.09363 C 409.12203,341.41483 400.82541,341.57533 394.28602,338.50143 C 386.94354,335.05013 384.8571,329.43873 390.39909,328.04773 C 394.08297,327.12313 396.23642,327.97003 396.85403,330.58633 C 397.90864,335.05373 407.69125,335.71203 409.96236,331.46843 C 410.55518,330.36073 410.94967,326.68483 410.83902,323.29973 C 410.53777,314.08393 410.30836,314.49873 415.51819,314.84013 C 420.1326,315.14263 420.17915,315.18163 421.54845,319.89493 C 422.30742,322.50743 423.39134,324.64493 423.95716,324.64493 C 424.52297,324.64493 424.70273,325.10313 424.35661,325.66323 C 423.50596,327.03953 427.28328,332.97523 431.00007,336.10273 C 435.98799,340.29983 443.23268,339.19223 448.63562,333.40663 C 449.97125,331.97643 450.79331,329.98493 450.63562,328.56163 C 450.42082,326.62283 450.87761,326.08563 452.9456,325.84513 C 454.38772,325.67743 456.56731,326.39073 457.89309,327.46433 C 460.11282,329.26173 460.18551,329.64143 459.04104,333.46133 C 456.37709,342.35283 445.37346,347.37223 434.36788,344.71623 z M 351.38156,316.47703 C 343.35442,310.16293 344.21347,291.95983 353.16574,278.67043 C 359.95702,268.58903 369.81714,259.56993 377.86788,256.07543 C 380.36788,254.99033 380.36788,254.99033 377.86788,253.58343 C 373.98237,251.39683 358.84794,251.94653 350.86788,254.56413 C 342.74168,257.22963 329.57674,264.70853 324.5745,269.50113 C 319.62924,274.23913 317.26594,281.69583 318.84771,287.57003 C 320.26532,292.83463 323.199,294.32443 332.61788,294.56273 C 337.03057,294.67433 336.90648,297.31303 332.4,299.19603 C 326.31041,301.74033 319.4392,300.49553 314.2399,295.90603 C 308.02269,290.41803 307.35285,285.27303 311.5045,274.89553 C 315.35685,265.26623 320.71529,260.44753 336.21031,252.67833 C 351.44684,245.03883 368.91695,242.86013 380.83175,247.11363 C 383.58131,248.09513 390.28675,248.92103 398.29188,249.26403 C 405.43982,249.57033 413.07223,250.12553 415.25279,250.49783 C 418.97305,251.13293 419.50582,250.89633 423.89567,246.65983 C 429.30901,241.43553 438.48989,238.11833 450.57397,237.02053 C 461.42008,236.03523 473.78842,240.41493 482.39662,248.28923 C 487.5033,252.96043 494.97452,262.72413 497.97303,268.64493 C 503.15767,278.88253 503.10145,290.64493 497.86788,290.64493 C 495.21978,290.64493 493.86788,287.68883 493.86788,281.89853 C 493.86788,274.02343 488.25625,264.09233 478.2317,254.22663 C 469.10471,245.24413 459.89906,242.30423 448.18435,244.63063 C 442.54936,245.74963 431.86788,250.31713 431.86788,251.60763 C 431.86788,251.95713 433.55538,252.83533 435.61788,253.55913 C 446.30283,257.30883 450.95525,260.50743 461.61048,271.42963 C 473.39065,283.50503 480.87353,296.17143 480.86414,304.02073 C 480.85837,308.84903 477.47901,313.64493 474.08258,313.64493 C 469.25778,313.64493 467.08239,309.37163 470.47419,306.55673 C 472.91386,304.53203 471.70453,297.64053 467.74089,290.98063 C 463.24804,283.43163 449.90974,269.86393 441.96284,264.75923 C 435.01683,260.29743 429.68955,259.35433 428.04387,262.29493 C 427.50152,263.26413 425.7666,263.98623 423.83951,264.04493 C 421.76908,264.10803 420.45724,264.69843 420.28398,265.64493 C 418.92831,273.05133 415.73707,286.02083 414.87315,287.63513 C 413.46026,290.27513 412.41739,290.17623 407.25981,286.91333 C 404.08724,284.90623 401.00929,281.21203 395.65496,272.98533 C 391.07003,265.94063 387.71334,261.76223 386.60273,261.71693 C 383.14364,261.57593 373.89655,267.87133 367.31514,274.84803 C 359.07379,283.58423 355.78181,290.45823 355.10452,300.34493 C 354.68418,306.48083 354.93056,308.08603 356.7716,311.20633 C 360.57729,317.65653 357.14626,321.01153 351.38156,316.47703 z M 356.36788,229.76033 C 351.6795,228.55993 349.16718,226.90393 346.26785,223.10273 C 343.09164,218.93843 342.78632,217.26423 342.81062,204.14493 C 342.83274,192.19983 345.2866,180.56423 348.51918,177.07623 C 350.31032,175.14353 351.75625,174.64943 355.57013,174.66693 C 366.03309,174.71483 375.92483,182.87383 380.40174,195.14873 C 382.71417,201.48893 383.01444,203.61613 382.67049,211.22113 C 382.33451,218.64983 381.97631,220.14703 380.32098,221.04123 C 379.24677,221.62153 375.60559,223.81493 372.22945,225.91543 C 365.74836,229.94763 361.30569,231.02463 356.36788,229.76033 z M 418.86788,224.97433 C 415.50471,223.66503 412.71739,219.93513 411.19897,214.71193 C 409.87931,210.17243 409.71681,206.51953 410.28845,194.24363 C 410.67116,186.02513 411.52059,178.28373 412.17608,177.04063 C 412.83157,175.79743 415.39288,173.30823 417.86788,171.50903 C 423.99293,167.05633 430.86627,166.88083 436.31655,171.03803 C 447.23044,179.36243 448.20897,181.61533 448.30727,198.64493 C 448.35577,207.04613 447.99874,209.82203 446.52115,212.53233 C 444.24157,216.71373 440.46528,220.29283 435.86788,222.62953 C 432.20157,224.49293 421.44301,225.97683 418.86788,224.97433 z M 364.86788,172.59443 C 360.19288,168.17003 354.61704,163.10893 352.47712,161.34753 C 344.77433,155.00723 343.93436,154.10723 343.33722,151.55473 C 342.8539,149.48873 343.27011,148.61143 345.39376,147.21993 C 349.23784,144.70123 351.67124,145.74153 359.47102,153.23813 C 363.26429,156.88393 369.14981,162.42933 372.54994,165.56113 C 378.13264,170.27953 382.52609,176.32653 374.69967,180.14193 C 373.95692,180.41913 369.60836,177.08083 364.86788,172.59443 z M 392.90306,173.71073 C 391.12645,170.39103 391.70747,168.46143 397.87435,157.20093 C 400.45654,150.43933 405.22963,145.01633 408.23738,138.57853 C 410.62921,133.06343 411.11777,132.54093 413.61334,132.82853 C 415.7688,133.07703 416.47927,133.78933 416.92121,136.14493 C 417.69546,140.27193 417.77513,140.10073 403.7582,164.42533 C 402.71853,166.22963 401.86788,168.32713 401.86788,169.08643 C 401.86788,170.52653 396.37247,175.64493 394.82634,175.64493 C 394.33789,175.64493 393.47241,174.77453 392.90306,173.71073 z M 256.36447,165.39493 C 257.96366,157.46603 269.16923,133.55993 276.16841,123.14493 C 283.1171,112.80513 291.28358,103.82203 302.36788,94.325734 C 304.80358,92.200634 293.70733,77.534634 290.92292,68.144934 C 289.25713,62.094934 287.06347,54.894934 286.04812,52.144934 C 285.03277,49.394934 281.5705,39.944934 278.35419,31.144934 C 275.13789,22.344934 272.34687,14.941634 272.15194,14.693134 C 271.20324,13.483634 266.65853,20.389734 260.66734,32.144934 C 257.02327,39.294934 253.33041,46.494934 252.46098,48.144934 C 251.59155,49.794934 250.87743,51.470134 250.87404,51.867634 C 250.87065,52.265134 249.80322,54.965134 248.50196,57.867634 C 237.16547,83.154434 233.38866,109.64063 238.26686,129.64493 C 239.79373,135.90633 246.1814,153.30653 248.99019,158.85563 C 250.535,161.98363 253.23099,173.67533 256.36447,165.39493 z M 528.16533,143.69893 C 527.78179,133.69423 526.2982,122.54533 524.89795,119.14493 C 524.44497,118.04493 523.0727,114.21993 521.84845,110.64493 C 520.62419,107.06993 515.15006,94.953134 509.68371,83.718734 C 504.21736,72.484334 498.60172,60.559334 497.20452,57.218734 C 493.191,47.622834 488.55405,38.748334 483.37933,30.759234 C 477.7871,22.125634 480.98321,19.793534 456.12601,50.644934 C 447.48481,61.369934 440.17919,70.369934 439.8913,70.644934 C 439.60342,70.919934 438.62196,72.494934 437.71027,74.144934 C 436.05267,77.144934 436.05267,77.144934 444.21027,80.564434 C 453.27055,84.362234 466.22153,92.797234 475.36788,100.85743 C 494.34951,117.58503 521.55568,146.58753 525.92634,154.75423 C 527.10797,156.96213 527.22173,156.98693 527.85678,155.17663 C 528.22793,154.11853 528.36678,148.95353 528.16533,143.69893 z"
     id="path2384"
     sodipodi:nodetypes="csssssssssccccsssssccsccccssssccssssssssssssssssssssssssssssccsssssssssssccsssssccsccsssssssssccsssssssssssssssssssssssssscccsssssssccsssscccccssccsssssssssssccssssssccsssscccccsssssssssssssssssssssssssccsccscccsssssssssssscssssssssssssccccsssssssssssssssssccsccsssssssssssssssssccssssssssssssssssssssssssssssssssssssssssccssssssssccssssssssccssssccccccsssssccsccsssssssscccssssssssssssc"
     inkscape:label="" />
</svg>
