<?xml version="1.0" encoding="UTF-8" standalone="no"?>
<!-- Created with Inkscape (http://www.inkscape.org/) -->
<svg
   xmlns:dc="http://purl.org/dc/elements/1.1/"
   xmlns:cc="http://creativecommons.org/ns#"
   xmlns:rdf="http://www.w3.org/1999/02/22-rdf-syntax-ns#"
   xmlns:svg="http://www.w3.org/2000/svg"
   xmlns="http://www.w3.org/2000/svg"
   xmlns:sodipodi="http://sodipodi.sourceforge.net/DTD/sodipodi-0.dtd"
   xmlns:inkscape="http://www.inkscape.org/namespaces/inkscape"
   width="578.73383"
   height="494.92993"
   id="svg3188"
   sodipodi:version="0.32"
   inkscape:version="0.46"
   sodipodi:docname="donkoose.svg"
   inkscape:output_extension="org.inkscape.output.svg.inkscape"
   version="1.0">
  <defs
     id="defs3190">
    <inkscape:perspective
       sodipodi:type="inkscape:persp3d"
       inkscape:vp_x="0 : 526.18109 : 1"
       inkscape:vp_y="0 : 1000 : 0"
       inkscape:vp_z="744.09448 : 526.18109 : 1"
       inkscape:persp3d-origin="372.04724 : 350.78739 : 1"
       id="perspective3196" />
  </defs>
  <sodipodi:namedview
     id="base"
     pagecolor="#ffffff"
     bordercolor="#666666"
     borderopacity="1.0"
     gridtolerance="10000"
     guidetolerance="10"
     objecttolerance="10"
     inkscape:pageopacity="0.0"
     inkscape:pageshadow="2"
     inkscape:zoom="0.35"
     inkscape:cx="-105"
     inkscape:cy="485.82"
     inkscape:document-units="px"
     inkscape:current-layer="layer1"
     showgrid="false"
     inkscape:window-width="1280"
     inkscape:window-height="968"
     inkscape:window-x="-4"
     inkscape:window-y="-4" />
  <metadata
     id="metadata3193">
    <rdf:RDF>
      <cc:Work
         rdf:about="">
        <dc:format>image/svg+xml</dc:format>
        <dc:type
           rdf:resource="http://purl.org/dc/dcmitype/StillImage" />
      </cc:Work>
    </rdf:RDF>
  </metadata>
  <g
     inkscape:label="Layer 1"
     inkscape:groupmode="layer"
     id="layer1">
    <path
       id="path2396"
       style="fill:#000000;fill-opacity:1"
       d="M 155.88565,229.60485 C 152.09605,227.95639 150.18875,224.81196 151.13635,221.77484 C 152.41115,217.68861 156.57685,216.91951 162.96885,219.59025 C 167.48555,221.47743 169.36035,225.00395 167.73885,228.56261 C 166.81105,230.59906 165.90055,231.05535 162.82835,231.02347 C 160.75405,231.00194 157.62985,230.36356 155.88565,229.60485 z M 198.51695,183.23133 C 195.79905,181.0305 196.38065,176.76252 199.63585,175.0204 C 202.61745,173.42466 206.55695,176.19392 206.55695,179.88566 C 206.55695,184.98063 202.67315,186.59679 198.51695,183.23133 z M 173.01145,175.60806 C 168.66705,171.2636 170.52345,166.06261 176.41865,166.06261 C 178.72175,166.06261 182.55695,170.48498 182.55695,173.14076 C 182.55695,175.04967 179.02605,178.06261 176.78895,178.06261 C 176.06135,178.06261 174.36155,176.95806 173.01145,175.60806 z M 483.35023,494.85054 C 476.9863,491.16147 476.31864,488.4596 475.49303,463.05386 C 474.80112,441.76236 473.84108,429.92889 471.59884,415.05386 C 467.47403,387.68986 465.09695,376.86238 461.53019,369.19159 C 459.90312,365.69234 458.57187,361.78139 458.57187,360.5006 C 458.57187,355.25956 463.40818,356.34231 466.83077,362.3496 C 471.67512,370.85236 474.69249,381.64596 477.51083,400.55386 C 478.65856,408.25386 480.04334,417.47886 480.58813,421.05386 C 482.72123,435.05178 483.7276,447.28964 484.16187,464.51206 C 484.65149,483.92989 485.2431,486.21797 490.26821,488.12851 C 493.32186,489.2895 498.52593,487.88232 500.85359,485.26621 C 503.15901,482.6751 505.42174,474.01806 507.70484,459.05386 C 510.38558,441.4833 510.40388,432.58495 507.77989,422.55386 C 503.79667,407.32671 504.21045,355.44244 508.5572,325.08553 C 509.40666,319.15305 509.30438,315.34856 508.05985,306.58553 C 505.63253,289.49423 503.55586,283.74565 496.60757,274.88349 C 487.05732,262.70269 483.86188,261.43982 445.07187,254.51596 C 432.48269,252.26884 401.63699,251.48414 386.06876,253.01494 C 372.66775,254.33264 330.27747,254.79535 324.80719,253.68364 C 314.38572,251.5657 307.28008,247.94301 294.07187,238.01374 C 282.9057,229.61958 280.77954,227.32675 271.17913,213.32645 C 266.9447,207.15137 261.92729,200.4525 260.02932,198.44007 C 256.76126,194.97492 256.33255,194.81481 251.9356,195.41748 C 248.40091,196.14259 245.16402,198.69045 242.4562,201.06906 C 239.88496,203.25549 236.53487,206.28065 234.06413,209.06258 C 231.59339,211.8445 229.57187,215.05788 229.57187,216.20341 C 229.57187,217.34895 231.98964,223.29643 234.9447,229.42003 C 240.71195,241.3712 248.75337,264.77018 250.45564,274.55386 C 251.02981,277.85386 252.18912,286.62886 253.03189,294.05386 C 253.87467,301.47886 255.02049,309.12886 255.57816,311.05386 C 256.13584,312.97886 257.03012,321.52886 257.56546,330.05386 C 258.1008,338.57886 258.96368,349.15386 259.48297,353.55386 C 260.00227,357.95386 260.70481,371.00386 261.04419,382.55386 C 262.03611,416.31185 265.3605,463.04416 267.2331,469.55386 C 268.81387,475.04907 276.34337,477.17381 279.98323,473.15181 C 282.45846,470.41671 284.49736,457.37416 284.53202,444.05386 C 284.56757,430.39137 282.05243,387.41533 280.44719,374.25651 C 279.16297,363.7293 279.69333,357.82837 282.49243,351.50055 C 285.67676,344.30184 291.6141,344.44227 299.0902,351.89312 C 303.83737,356.62425 304.96637,358.95768 306.90944,368.05386 C 308.63477,376.13075 309.17728,388.23949 310.11288,439.55386 C 310.4438,457.70386 311.14095,474.20851 311.6621,476.23086 C 312.95213,481.23689 317.64672,485.05386 322.51374,485.05386 C 328.1963,485.05386 331.20001,482.1621 332.61943,475.32477 C 334.11209,468.13464 334.13897,407.49001 332.65545,394.05386 C 332.07854,388.82886 331.59943,379.37886 331.59075,373.05386 C 331.56613,355.10343 334.45666,351.65036 346.36369,355.40589 C 363.51593,360.81578 397.9356,364.37569 419.82874,363.00413 C 435.34828,362.03185 437.91938,362.67972 443.81053,369.04702 C 451.64783,377.51779 452.28901,381.13208 453.12519,421.55386 C 453.51202,440.25386 453.88328,460.56814 453.9502,466.69671 C 454.08264,478.82596 454.78435,480.56102 460.81951,483.68192 C 462.33331,484.46473 463.57187,485.73652 463.57187,486.50811 C 463.57187,490.66334 456.14535,492.5447 451.78866,489.49316 C 445.93989,485.39651 445.41231,480.62796 443.66355,416.05386 C 442.39904,369.36078 443.52213,371.0574 413.87154,371.04772 C 393.49609,371.04107 361.17064,367.60654 352.67231,364.54539 C 347.39825,362.64565 343.07487,363.35656 341.04295,366.45766 C 339.77931,368.38621 339.7501,371.17941 340.82683,387.12076 C 341.56311,398.02155 341.96366,420.36753 341.80707,441.80591 C 341.55921,475.73807 341.40882,478.41463 339.45694,483.6315 C 335.99881,492.87418 330.25873,494.80778 316.0567,491.51411 C 308.20025,489.69208 306.11632,488.53326 304.53595,485.10776 C 303.77682,483.46231 303.0413,471.17107 302.4682,450.55386 C 300.51325,380.22407 299.45794,368.08279 294.90408,363.52893 C 293.41799,362.04283 293.1552,362.04196 291.67901,363.51815 C 289.77397,365.42319 289.68915,374.74724 291.40576,393.55386 C 292.00819,400.15386 292.80125,416.35386 293.16812,429.55386 C 293.72955,449.75388 293.56019,455.32055 292.09851,464.71196 C 289.51901,481.28548 286.45316,484.89352 276.07187,483.57291 C 269.73251,482.76648 267.64932,481.57981 263.21966,476.25179 C 259.20508,471.42303 259.27727,471.74406 257.103,449.05386 C 256.23339,439.97886 255.33476,431.20386 255.10604,429.55386 C 254.87733,427.90386 254.19786,414.17886 253.59612,399.05386 C 252.99438,383.92886 252.10048,367.27886 251.60967,362.05386 C 251.11886,356.82886 250.2302,347.15386 249.63486,340.55386 C 249.03953,333.95386 247.8844,322.92886 247.06792,316.05386 C 246.25143,309.17886 245.1077,299.50386 244.52629,294.55386 C 241.18131,266.07544 227.56667,226.68524 219.51402,222.18776 C 213.20228,218.6626 203.02757,224.58437 198.56403,234.38085 C 193.42798,245.65335 180.94582,256.04491 170.2285,257.97056 C 157.25788,260.30108 144.16139,254.18356 135.40879,241.70587 C 128.95089,232.49951 126.86824,220.48818 130.22757,211.8241 C 131.21972,209.26524 134.96968,204.34771 139.5845,199.55386 C 148.30082,190.49938 149.59826,188.31446 151.95707,178.71807 C 154.31762,169.11458 161.85096,151.94458 166.41569,145.76392 C 171.1099,139.40795 173.57187,134.76935 173.57187,132.28094 C 173.57187,131.25121 171.50448,126.16636 168.97767,120.98128 C 165.7026,114.26075 163.71136,108.31944 162.04267,100.2892 C 160.48471,92.791804 158.67647,87.232324 156.63577,83.665544 C 153.11553,77.512804 145.97559,70.538324 141.12037,68.509684 C 139.28846,67.744264 130.65314,66.598024 121.93075,65.962494 C 108.15754,64.958934 104.62521,65.027174 95.071911,66.481324 C 89.021911,67.402214 75.071911,68.655764 64.07191,69.266984 L 44.07191,70.378294 L 33.07191,67.249574 C 27.021909,65.528774 19.152709,63.412754 15.584809,62.547304 C 5.0606104,59.994524 -0.13638957,53.077964 2.9391104,45.717404 C 4.7201104,41.454814 7.2520094,39.732574 15.010309,37.506394 C 20.146109,36.032704 23.795109,35.893434 42.01031,36.475914 C 67.22091,37.282104 67.94311,37.062334 70.89911,27.684644 C 72.983911,21.070864 76.896011,17.856604 85.071911,16.040094 C 93.446911,14.179304 99.912511,16.374144 110.88528,24.802804 C 117.152,29.616554 122.78473,31.559584 133.54702,32.620074 C 139.68353,33.224754 140.38106,33.085294 143.23602,30.683014 C 144.92806,29.259254 146.77701,26.847744 147.3448,25.324114 C 149.98515,18.238894 152.7244,8.0906943 152.4147,6.5414743 C 156.3598,0.25787429 158.27454,0.44296429 164.52469,7.7897143 C 167.26434,9.5694343 170.26605,12.494434 171.19514,14.289714 C 173.94722,19.607534 174.90291,30.946574 175.02657,59.748604 C 175.02657,59.748604 175.10625,79.854374 176.39333,84.943344 C 177.68041,90.032314 179.75212,93.748604 179.75212,93.748604 C 182.28695,97.491494 185.80594,103.47886 187.57211,107.05386 C 189.33827,110.62886 191.94493,114.79136 193.36468,116.30386 C 195.90478,119.00989 196.13938,119.05386 208.03645,119.05386 C 222.0927,119.05386 223.3794,118.50443 226.06317,111.35636 C 227.05489,108.71498 229.33788,103.60139 231.13649,99.992824 C 234.52261,93.199234 236.22619,91.449444 256.97011,73.458534 C 267.13992,64.638404 275.13935,55.841564 277.79852,50.553864 C 278.6283,48.903864 279.8955,45.216094 280.61451,42.358814 C 281.7726,37.756664 281.7087,36.459944 280.05457,30.996714 C 278.38283,25.475344 278.3415,24.554984 279.65983,22.206224 C 282.35086,17.411814 289.37766,15.695794 296.35666,18.128684 C 300.10642,19.435864 302.14543,22.387164 304.38808,29.753554 C 306.56519,36.904654 309.70224,39.495234 314.98467,38.504244 C 318.44341,37.855384 322.27004,35.556534 334.93106,26.521454 C 341.47261,21.853314 345.55872,21.840714 350.19242,26.474414 C 353.53641,29.818404 353.60857,30.065484 353.41631,37.512584 C 353.15242,47.733964 353.9028,48.448854 365.35648,48.888084 C 375.56454,49.279554 392.22018,47.006874 405.4404,43.418594 C 416.76318,40.345324 420.48036,40.762344 425.37274,45.654734 C 428.61483,48.896824 428.7897,49.413534 428.36758,54.503734 C 427.83919,60.875474 424.83692,65.399384 418.02762,70.084314 C 411.01291,74.910564 406.14346,75.451954 355.31134,77.057214 C 332.91845,77.764374 318.1219,77.818354 313.72412,77.208914 C 301.58906,75.527254 296.42836,75.250784 274.55042,91.598544 C 266.33807,97.735024 257.77844,104.81601 255.36386,107.68128 C 252.94929,110.54656 242.57187,129.51066 242.57187,132.13245 C 242.57187,133.0982 245.11189,136.96309 248.21636,140.72111 C 251.32083,144.47912 255.23838,150.47886 256.92203,154.05386 C 259.76448,160.08944 259.99822,161.43597 260.19342,172.89974 L 260.40363,185.24561 L 264.23775,190.5119 C 266.34652,193.40837 269.87187,198.04902 272.07187,200.82448 C 274.27187,203.59993 277.64687,208.47987 279.57187,211.66878 C 285.00949,220.67663 292.74594,228.31654 303.8706,235.66433 C 319.2716,245.83663 321.18686,246.26319 350.93368,246.146 C 364.60768,246.09213 379.75784,245.5992 384.6007,245.05059 C 396.30468,243.72475 422.21873,243.66281 431.57187,244.93833 C 435.69687,245.50086 444.92187,246.8966 452.07187,248.03997 C 459.22187,249.18333 467.58658,250.50973 470.66011,250.98752 C 473.73364,251.46531 478.59916,253.13819 481.47238,254.70504 C 484.34559,256.27189 488.58089,258.58601 490.88414,259.84752 C 495.62147,262.44221 498.59746,262.25712 506.19788,258.89509 C 510.29019,257.08487 512.30065,256.87228 521.49074,257.27797 C 533.72057,257.81786 537.5364,259.13644 543.93371,265.03328 C 547.85678,268.64943 554.50724,280.05189 556.93175,287.31887 C 557.64398,289.45364 562.14459,291.32425 564.65304,290.5281 C 565.65239,290.21092 567.95545,288.56229 569.77095,286.86448 C 574.60367,282.34506 577.08449,280.92961 578.93097,281.63816 C 580.81661,282.36175 580.75538,282.00065 580.79352,292.62135 C 580.83033,302.86949 580.39109,304.11764 575.89048,306.55386 C 572.7479,308.25496 572.02827,309.30644 571.07525,313.58957 C 570.45899,316.35921 569.61707,319.17171 569.20431,319.83957 C 567.94533,321.87665 562.74772,321.19861 558.60459,318.45681 C 555.3543,316.30587 553.9967,315.97524 550.70122,316.53201 C 547.41767,317.08676 546.34819,316.83018 544.58192,315.06391 C 542.07715,312.55914 542.4114,309.74237 546.17171,301.66658 C 549.72799,294.02898 549.35981,289.00749 544.62374,280.55386 C 537.56493,267.95427 531.44181,263.80113 520.02175,263.86701 C 507.04708,263.94186 503.83849,268.84169 509.15693,280.45869 C 515.6488,294.63879 517.23491,314.93313 514.32187,346.54391 C 511.79538,373.96007 512.20937,402.47175 515.53446,430.05386 C 516.32031,436.5726 516.19671,442.51637 515.00418,455.55386 C 512.36828,484.37129 510.23938,490.43829 501.30338,494.59866 C 494.70301,497.67163 488.37009,497.76048 483.35023,494.85054 z M 175.00835,246.34609 C 178.57342,244.52341 185.53235,239.26225 187.27874,237.06932 C 187.94253,236.23582 189.4881,233.07886 190.71335,230.05386 C 194.61082,220.4315 196.55534,218.68572 211.42698,211.4573 C 218.93167,207.80961 226.87187,203.37156 229.07187,201.59497 C 234.08576,197.54603 238.37884,195.14907 241.11909,193.76142 C 243.08277,192.76702 244.00789,191.80973 247.17425,186.09797 C 251.94268,177.49624 252.07187,175.97066 252.07187,169.54305 C 252.07187,163.06873 251.72851,161.93216 247.58497,154.69069 C 238.93686,139.57681 223.78369,128.43816 210.73629,127.60431 C 194.78511,126.58489 184.09102,132.8596 175.03164,148.55386 C 173.44422,151.30386 170.71312,155.57886 168.96252,158.05386 C 164.7705,163.98056 160.72848,173.78671 158.938,182.37389 C 158.14296,186.18695 156.76874,190.70626 155.88419,192.41679 C 154.22435,195.62657 144.00865,208.68639 142.72374,209.2412 C 142.32548,209.41316 140.93295,211.07223 139.62924,212.92802 C 136.70675,217.0881 136.61247,222.51831 139.33831,229.68582 C 142.73399,238.61466 149.60742,245.59672 157.52509,248.16004 C 161.05038,249.30134 171.31013,248.23685 175.00835,246.34609 z M 158.32187,225.97376 C 155.75412,224.47819 156.14224,222.05386 158.94943,222.05386 C 161.61304,222.05386 164.08653,224.41211 163.09894,226.01006 C 162.29468,227.31137 160.59626,227.29847 158.32187,225.97376 z M 262.07187,91.956364 C 264.99003,89.646814 272.45619,84.075434 279.03702,79.666154 C 285.90335,75.065574 292.93464,71.157054 295.53702,70.494214 C 298.64278,69.703154 310.78646,69.425924 334.07187,69.614494 C 368.04307,69.889594 396.48653,68.838504 406.24471,66.947434 C 410.44884,66.132704 412.18105,65.116654 415.49471,61.521764 C 419.91669,56.724474 420.41433,54.701634 418.01518,51.276374 C 415.95506,48.335134 412.16432,48.418604 402.07188,51.627414 C 391.82372,54.885734 367.4691,56.911814 358.99867,55.210714 C 347.83098,52.967914 342.82994,48.498484 343.84916,41.671584 C 345.06277,33.542624 340.68355,31.897524 333.14779,37.651504 C 327.16395,42.220504 317.6553,46.105114 312.18656,46.214884 C 305.25135,46.354084 301.81727,43.873944 298.35838,36.227954 C 296.6978,32.557204 294.84411,29.242104 294.23905,28.861064 C 292.43139,27.722674 290.77074,29.904854 290.05324,34.361434 C 288.07938,46.621534 285.44198,53.555714 280.09099,60.553864 C 277.14717,64.403864 273.46357,68.647414 271.90523,69.983974 C 264.00259,76.761874 239.23068,98.065494 236.7288,102.26314 C 234.68103,105.69889 229.89699,118.97327 232.08918,121.08729 C 234.60171,123.51023 235.8823,121.40936 241.83918,115.14178 C 247.07673,109.63106 257.87289,95.279614 262.07187,91.956364 z M 170.77137,87.053864 C 167.69094,78.454384 170.30176,42.417194 166.68654,28.558964 C 165.70179,24.784114 164.86604,20.919464 164.0782,20.131614 C 161.66507,17.718494 158.18008,20.156014 156.11269,25.702964 C 150.79282,39.976534 142.29216,43.490054 123.80273,39.057414 C 114.57058,36.844114 109.055,34.354424 106.07187,31.053864 C 101.38741,25.870914 90.950611,22.825924 85.544911,25.065014 C 81.840011,26.599664 80.571911,28.767124 80.571911,33.565044 C 80.571911,36.234114 79.812311,37.967304 77.729911,40.049694 C 72.987611,44.791934 68.36331,45.551404 44.07191,45.577504 C 20.718309,45.602604 15.571909,46.415704 15.571909,50.080264 C 15.571909,52.502044 18.216009,55.053864 20.725309,55.053864 C 21.831109,55.053864 26.186509,56.291364 30.40391,57.803864 C 37.70691,60.422964 38.85301,60.544644 54.48241,60.360254 C 63.50811,60.253764 78.133111,59.417964 86.982411,58.502914 C 98.926911,57.267794 106.87745,57.020474 117.84402,57.542884 C 139.94065,58.595484 145.10897,60.494074 156.45304,71.725924 C 163.35966,77.715854 161.92732,81.725194 169.74554,102.75462 C 170.88356,106.99446 173.13269,114.54801 177.2259,118.64123 C 180.89084,122.30616 181.33938,122.48721 183.44687,121.15228 C 184.20312,120.67325 185.25398,119.05499 184.82187,117.70621 C 178.57187,98.197324 173.70097,95.232284 170.77137,87.053864 z"
       sodipodi:nodetypes="cssssccssccsssccsssssssssssssssssssssccssssssssssssssssssssssssssssssssssssssssssssssssssssssssssssssssssssscccssssssssssccsczcsssssssssssssssssssssssszssscccssssssssssssssssssssssssssssssssccsssssssssssssssssccssccsssssssssssssssssssscsssssssssssssssccscsz" />
  </g>
</svg>
