<?xml version="1.0" encoding="UTF-8" standalone="no"?>
<!-- Created with Inkscape (http://www.inkscape.org/) -->
<svg
   xmlns:dc="http://purl.org/dc/elements/1.1/"
   xmlns:cc="http://creativecommons.org/ns#"
   xmlns:rdf="http://www.w3.org/1999/02/22-rdf-syntax-ns#"
   xmlns:svg="http://www.w3.org/2000/svg"
   xmlns="http://www.w3.org/2000/svg"
   xmlns:sodipodi="http://sodipodi.sourceforge.net/DTD/sodipodi-0.dtd"
   xmlns:inkscape="http://www.inkscape.org/namespaces/inkscape"
   width="520"
   height="520"
   id="svg2429"
   sodipodi:version="0.32"
   inkscape:version="0.46"
   version="1.0"
   sodipodi:docname="rook.svg"
   inkscape:output_extension="org.inkscape.output.svg.inkscape">
  <defs
     id="defs2431">
    <inkscape:perspective
       sodipodi:type="inkscape:persp3d"
       inkscape:vp_x="0 : 240 : 1"
       inkscape:vp_y="0 : 1000 : 0"
       inkscape:vp_z="640 : 240 : 1"
       inkscape:persp3d-origin="320 : 160 : 1"
       id="perspective2437" />
    <filter
       id="filter2422"
       inkscape:label="filter1" />
  </defs>
  <sodipodi:namedview
     id="base"
     pagecolor="#ffffff"
     bordercolor="#666666"
     borderopacity="1.0"
     inkscape:pageopacity="0.0"
     inkscape:pageshadow="2"
     inkscape:zoom="0.1767767"
     inkscape:cx="646.52072"
     inkscape:cy="718.7851"
     inkscape:current-layer="layer1"
     inkscape:document-units="px"
     showgrid="false"
     inkscape:window-width="1280"
     inkscape:window-height="968"
     inkscape:window-x="0"
     inkscape:window-y="24" />
  <metadata
     id="metadata2434">
    <rdf:RDF>
      <cc:Work
         rdf:about="">
        <dc:format>image/svg+xml</dc:format>
        <dc:type
           rdf:resource="http://purl.org/dc/dcmitype/StillImage" />
      </cc:Work>
    </rdf:RDF>
  </metadata>
  <g
     id="layer1"
     inkscape:label="Layer 1"
     inkscape:groupmode="layer">
    <g
       id="g2490">
      <path
         transform="translate(-33.637177,-72.788818)"
         d="M 543.38551,332.78882 A 249.74834,249.74834 0 1 1 43.88884,332.78882 A 249.74834,249.74834 0 1 1 543.38551,332.78882 z"
         sodipodi:ry="249.74834"
         sodipodi:rx="249.74834"
         sodipodi:cy="332.78882"
         sodipodi:cx="293.63718"
         id="path4245"
         style="fill:none;fill-opacity:1;fill-rule:evenodd;stroke:#000000;stroke-width:20;stroke-miterlimit:4;stroke-dasharray:none;stroke-opacity:1"
         sodipodi:type="arc" />
      <path
         d="M 283.60893,74.451649 C 298.00603,78.488049 304.34723,91.096949 304.89983,99.699049 C 305.45243,108.30125 296.97753,122.94875 299.77443,127.12045 C 318.06903,131.66695 336.16953,133.63295 356.45973,127.35045 C 362.02703,133.96045 368.11053,140.50455 374.57563,147.30335 C 377.33873,151.83315 372.59823,159.48185 368.23123,163.20345 C 357.75603,169.64245 342.15333,166.60125 329.55783,165.50455 C 312.58143,164.27245 299.20913,161.58215 298.43233,164.82795 C 297.65563,168.07365 297.22293,170.78095 297.74203,172.31875 C 298.40653,174.28735 317.54543,176.63965 326.68033,177.59825 C 343.34783,179.34735 364.40063,177.13245 365.78433,177.00665 C 372.12013,178.13355 380.59363,178.92845 383.67963,184.69345 C 384.79903,183.89295 389.93583,200.21375 388.95143,201.34035 C 384.14793,232.65015 378.21003,264.98765 368.21183,295.92855 C 367.74303,297.37945 299.83103,297.07105 294.70343,297.46495 C 294.33713,297.49315 291.65063,304.57375 293.89233,304.61115 C 317.59583,308.62155 362.06203,304.85955 394.60533,306.59885 C 403.93173,307.59935 418.38583,305.54285 429.70153,308.69735 C 444.63513,319.79275 451.74153,344.62375 452.71313,363.13785 C 452.74953,367.04535 431.58713,375.32015 427.23313,374.38555 C 417.41443,372.27785 408.19573,366.12435 399.13943,358.87355 C 372.28203,340.75535 322.28073,327.86795 290.45043,340.02245 C 290.59673,364.88205 287.03843,390.64265 290.08293,415.47315 C 291.56443,434.13965 275.83623,448.39315 257.55413,445.21415 C 254.28963,443.97795 249.05493,435.80745 249.56393,432.74265 C 241.16993,403.73505 249.56243,369.22605 243.30773,340.71215 C 198.89603,341.14555 126.99963,391.63495 108.41363,370.32345 C 83.92023,354.28415 79.52493,338.84935 68.22013,313.07285 C 66.37013,310.93555 67.43783,306.13955 69.95353,305.28685 C 93.32593,310.08155 110.95023,317.91155 137.00863,318.13165 C 156.32333,316.55075 175.09143,312.19095 194.51033,311.17275 C 199.64933,309.70705 233.59903,308.20675 246.19033,305.87485 C 247.58103,305.61735 244.44573,300.70105 244.04003,298.49325 C 223.46803,299.95645 182.32643,301.44405 181.95453,298.17975 C 181.58253,294.91555 168.72973,272.93535 159.06803,247.79535 C 153.06433,232.17335 149.25293,212.70365 147.71683,205.49765 C 143.70873,186.69515 157.81843,181.69605 165.84973,181.19575 C 179.74973,181.05645 244.86343,178.54745 245.13133,175.14785 C 245.02703,171.08345 244.63233,162.50765 241.84533,164.38055 C 219.23673,162.54275 173.09903,177.94745 157.18833,161.11215 C 152.30463,155.69415 151.90023,145.88995 156.30643,139.72825 C 173.13963,119.85425 196.43193,124.93045 220.10943,128.83225 C 227.13843,130.24365 238.62783,132.89665 242.95923,131.72705 C 244.74593,131.24455 242.72483,126.34455 242.84743,115.89545 C 241.26773,92.153449 259.92963,72.689149 283.60893,74.451649 z M 203.99563,256.49405 C 202.38583,258.17805 203.32543,266.48635 206.26233,269.40035 C 208.83243,271.95065 244.63793,267.88865 246.14623,266.92165 C 247.80293,265.85955 246.80633,253.20315 243.80923,252.80265 C 240.31693,252.33595 205.69643,254.71495 203.99563,256.49405 z M 297.24463,252.27355 C 295.33343,253.60565 294.61043,261.93565 296.91263,265.37325 C 298.92743,268.38165 336.92143,271.83205 338.59123,271.18265 C 340.42533,270.46935 341.95263,257.86595 339.09413,256.88035 C 335.76313,255.73185 299.26373,250.86615 297.24463,252.27355 z M 198.19763,211.40785 C 196.42223,212.91635 196.49713,221.27725 199.11673,224.47955 C 201.40923,227.28205 241.56773,223.68905 243.16803,222.88335 C 244.92573,221.99835 245.24383,209.30665 242.30443,208.59825 C 238.87903,207.77275 200.07333,209.81435 198.19763,211.40785 z M 299.31793,207.97445 C 297.46123,209.38175 297.07023,217.73385 299.50743,221.07705 C 301.64023,224.00285 341.47313,226.31235 343.11573,225.59695 C 344.92003,224.81125 345.94473,212.15705 343.04923,211.28595 C 339.67523,210.27085 301.27953,206.48785 299.31793,207.97445 z"
         style="fill:#ff0000;stroke:#800000;stroke-width:5;stroke-miterlimit:4;stroke-dasharray:none"
         id="path2432" />
    </g>
  </g>
</svg>
