<?xml version="1.0" encoding="UTF-8" standalone="no"?>
<!-- This is a slightly modified version of a sample that shipped with
     JASC's WebDraw (www.jasc.com) -->
<svg
   xmlns:dc="http://purl.org/dc/elements/1.1/"
   xmlns:cc="http://creativecommons.org/ns#"
   xmlns:rdf="http://www.w3.org/1999/02/22-rdf-syntax-ns#"
   xmlns:svg="http://www.w3.org/2000/svg"
   xmlns="http://www.w3.org/2000/svg"
   xmlns:sodipodi="http://sodipodi.sourceforge.net/DTD/sodipodi-0.dtd"
   xmlns:inkscape="http://www.inkscape.org/namespaces/inkscape"
   id="svg2"
   sodipodi:version="0.32"
   inkscape:version="0.46"
   width="398.36356"
   height="248.99864"
   sodipodi:docname="butterfly.svg"
   inkscape:output_extension="org.inkscape.output.svg.inkscape"
   version="1.0">
  <metadata
     id="metadata15">
    <rdf:RDF>
      <cc:Work
         rdf:about="">
        <dc:format>image/svg+xml</dc:format>
        <dc:type
           rdf:resource="http://purl.org/dc/dcmitype/StillImage" />
      </cc:Work>
    </rdf:RDF>
  </metadata>
  <defs
     id="defs13">
    <inkscape:perspective
       sodipodi:type="inkscape:persp3d"
       inkscape:vp_x="0 : 526.18109 : 1"
       inkscape:vp_y="0 : 1000 : 0"
       inkscape:vp_z="744.09448 : 526.18109 : 1"
       inkscape:persp3d-origin="372.04724 : 350.78739 : 1"
       id="perspective17" />
  </defs>
  <sodipodi:namedview
     inkscape:window-height="968"
     inkscape:window-width="1280"
     inkscape:pageshadow="2"
     inkscape:pageopacity="0.0"
     guidetolerance="10.0"
     gridtolerance="10.0"
     objecttolerance="10.0"
     borderopacity="1.0"
     bordercolor="#666666"
     pagecolor="#ffffff"
     id="base"
     showgrid="false"
     inkscape:zoom="1.7560494"
     inkscape:cx="160.95598"
     inkscape:cy="109.69461"
     inkscape:window-x="-4"
     inkscape:window-y="-4"
     inkscape:current-layer="svg2" />
  <g
     id="g2401">
    <path
       style="fill:#f67f00;stroke:none;stroke-width:1"
       d="M 195.93561,106.38363 C 187.93561,99.883634 198.28561,99.373634 198.18561,99.133634 C 183.93561,63.633634 160.95561,47.963634 159.18561,47.133634 C 153.72561,44.573634 151.08561,44.813634 152.05561,43.523634 C 153.01561,42.233634 159.32561,46.273634 160.18561,46.883634 C 185.43561,64.883634 199.18561,98.883634 199.18561,98.883634 C 199.18561,98.883634 200.93561,99.883634 201.18561,99.133634 C 211.18561,69.633634 231.18561,54.133634 237.93561,47.883634 C 244.68561,41.633634 248.23561,41.023634 238.93561,48.133634 C 210.18561,70.133634 201.94561,98.783634 202.43561,98.883634 C 213.93561,101.38363 202.93561,106.88363 203.43561,106.38363 C 206.45561,103.36363 206.43561,112.38363 206.43561,112.38363 C 206.43561,112.38363 223.43561,77.383634 289.93561,32.883634 C 294.03561,30.143634 437.43561,-48.116366 387.43561,47.383634 C 384.84561,52.343634 367.43561,72.383634 367.43561,72.383634 C 367.43561,72.383634 368.93561,80.883634 362.93561,87.883634 C 361.90561,89.083634 359.43561,100.88363 353.43561,107.38363 C 351.74561,109.22363 353.41561,105.80363 353.43561,107.38363 C 353.93561,137.38363 329.36561,136.72363 330.93561,136.88363 C 340.43561,137.88363 341.79561,150.21363 341.93561,150.38363 C 347.43561,156.88363 345.43561,158.38363 347.43561,161.38363 C 358.23561,177.57363 346.84561,176.60363 348.43561,179.38363 C 352.43561,186.38363 347.59561,189.27363 348.93561,191.38363 C 352.43561,196.88363 346.35561,200.39363 346.43561,201.88363 C 346.93561,210.38363 341.27561,207.28363 341.43561,210.88363 C 341.93561,221.88363 337.93561,217.38363 335.43561,221.38363 C 327.93561,233.38363 325.06561,228.93363 324.43561,230.38363 C 321.43561,237.38363 317.41561,235.70363 315.93561,237.38363 C 312.43561,241.38363 308.93561,241.38363 307.43561,242.88363 C 300.43561,249.88363 296.46561,244.94363 295.43561,245.38363 C 279.43561,252.38363 271.93561,246.72363 269.43561,246.88363 C 261.93561,247.38363 263.08561,246.22363 260.93561,244.38363 C 229.43561,217.38363 210.93561,178.38363 207.43561,173.38363 C 206.00561,171.34363 202.95561,159.67363 203.93561,162.38363 C 205.93561,167.88363 204.93561,216.88363 199.43561,216.88363 C 193.93561,216.88363 193.43561,170.88363 196.93561,162.38363 C 198.03561,159.71363 196.00561,170.27363 193.39561,173.38363 C 187.93561,179.88363 171.10561,217.38363 139.19561,244.38363 C 137.02561,246.22363 138.18561,247.38363 130.58561,246.88363 C 128.06561,246.72363 120.45561,252.38363 104.25561,245.38363 C 103.21561,244.94363 99.185612,249.88363 92.095612,242.88363 C 90.575612,241.38363 87.035612,241.38363 83.485612,237.38363 C 81.995612,235.70363 77.915612,237.38363 74.875612,230.38363 C 74.245612,228.93363 71.335612,233.38363 63.735612,221.38363 C 61.205612,217.38363 57.145612,221.88363 57.655612,210.88363 C 57.825612,207.28363 52.085612,210.38363 52.595612,201.88363 C 52.685612,200.39363 46.515612,196.88363 50.055612,191.38363 C 51.415612,189.27363 46.515612,186.38363 50.565612,179.38363 C 52.175612,176.60363 40.645612,177.57363 51.575612,161.38363 C 53.605612,158.38363 51.575612,156.88363 57.145612,150.38363 C 57.295612,150.21363 58.665612,137.88363 68.295612,136.88363 C 69.885612,136.72363 44.995612,137.38363 45.505612,107.38363 C 45.525612,105.80363 47.215612,109.22363 45.505612,107.38363 C 39.425612,100.88363 36.925612,89.083634 35.875612,87.883634 C 29.795612,80.883634 31.315612,72.383634 31.315612,72.383634 C 31.315612,72.383634 13.685612,52.343634 11.065612,47.383634 C -39.584388,-48.116366 105.67561,30.143634 109.82561,32.883634 C 177.18561,77.383634 193.60561,112.38363 193.60561,112.38363 C 193.60561,112.38363 193.96561,109.83363 194.60561,108.38363 C 195.24561,106.94363 196.16561,106.57363 195.93561,106.38363 z"
       id="path6" />
    <path
       style="fill:#000000;stroke:none;stroke-width:1"
       d="M 195.93898,106.385 C 187.93898,99.884997 198.27898,99.364997 198.18898,99.134997 C 183.93898,63.634997 160.95898,47.964997 159.18898,47.134997 C 153.72898,44.574997 151.08898,44.814997 152.04898,43.524997 C 153.00898,42.234997 159.32898,46.274997 160.18898,46.884997 C 185.43898,64.884997 199.18898,98.884997 199.18898,98.884997 C 199.18898,98.884997 200.93898,99.884997 201.18898,99.134997 C 211.18898,69.634997 231.18898,54.134997 237.93898,47.884997 C 244.68898,41.634997 248.23898,41.024997 238.93898,48.134997 C 210.18898,70.134997 201.94898,98.774997 202.43898,98.884997 C 213.93898,101.385 202.93898,106.885 203.43898,106.385 C 206.45898,103.365 206.43898,112.385 206.43898,112.385 C 206.43898,112.385 223.43898,77.384997 289.93898,32.884997 C 294.02898,30.144997 437.43898,-48.115003 387.43898,47.384997 C 384.84898,52.334997 367.43898,72.384997 367.43898,72.384997 C 367.43898,72.384997 368.93898,80.884997 362.93898,87.884997 C 361.90898,89.084997 359.43898,100.885 353.43898,107.385 C 351.74898,109.225 353.40898,105.805 353.43898,107.385 C 353.93898,137.385 329.36898,136.725 330.93898,136.885 C 340.43898,137.885 341.78898,150.215 341.93898,150.385 C 347.43898,156.885 345.43898,158.385 347.43898,161.385 C 358.22898,177.575 346.84898,176.605 348.43898,179.385 C 352.43898,186.385 347.59898,189.275 348.93898,191.385 C 352.43898,196.885 346.34898,200.385 346.43898,201.885 C 346.93898,210.385 341.27898,207.285 341.43898,210.885 C 341.93898,221.885 337.93898,217.385 335.43898,221.385 C 327.93898,233.385 325.05898,228.935 324.43898,230.385 C 321.43898,237.385 317.40898,235.705 315.93898,237.385 C 312.43898,241.385 308.93898,241.385 307.43898,242.885 C 300.43898,249.885 296.46898,244.935 295.43898,245.385 C 279.43898,252.385 271.93898,246.715 269.43898,246.885 C 261.93898,247.385 263.08898,246.225 260.93898,244.385 C 229.43898,217.385 210.93898,178.385 207.43898,173.385 C 206.00898,171.335 202.94898,159.675 203.93898,162.385 C 205.93898,167.885 204.93898,216.885 199.43898,216.885 C 193.93898,216.885 193.43898,170.885 196.93898,162.385 C 198.03898,159.715 196.00898,170.265 193.39898,173.385 C 187.93898,179.885 171.10898,217.385 139.19898,244.385 C 137.02898,246.225 138.18898,247.385 130.58898,246.885 C 128.06898,246.715 120.45898,252.385 104.25898,245.385 C 103.21898,244.935 99.188983,249.885 92.098983,242.885 C 90.578983,241.385 87.038983,241.385 83.488983,237.385 C 81.998983,235.705 77.918983,237.385 74.878983,230.385 C 74.248983,228.935 71.328983,233.385 63.738983,221.385 C 61.198983,217.385 57.148983,221.885 57.658983,210.885 C 57.828983,207.285 52.088983,210.385 52.588983,201.885 C 52.678983,200.385 46.518983,196.885 50.058983,191.385 C 51.418983,189.275 46.518983,186.385 50.568983,179.385 C 52.178983,176.605 40.648983,177.575 51.578983,161.385 C 53.608983,158.385 51.578983,156.885 57.148983,150.385 C 57.298983,150.215 58.668983,137.885 68.298983,136.885 C 69.888983,136.725 44.998983,137.385 45.498983,107.385 C 45.528983,105.805 47.218983,109.225 45.498983,107.385 C 39.428983,100.885 36.918983,89.084997 35.878983,87.884997 C 29.798983,80.884997 31.318983,72.384997 31.318983,72.384997 C 31.318983,72.384997 13.688983,52.334997 11.058983,47.384997 C -39.581017,-48.115003 105.67898,30.144997 109.82898,32.884997 C 177.18898,77.384997 193.60898,112.385 193.60898,112.385 C 193.60898,112.385 193.96898,109.835 194.60898,108.385 C 195.24898,106.945 196.16898,106.575 195.93898,106.385 z M 234.43898,119.885 C 237.47898,119.785 243.66898,122.935 247.43898,121.885 C 272.86898,114.825 320.75898,121.325 323.93898,122.385 C 335.93898,126.385 343.93898,97.884997 318.43898,97.884997 C 286.90898,97.884997 293.43898,95.884997 272.43898,92.884997 C 270.65898,92.634997 244.91898,102.185 220.93898,115.885 C 217.43898,117.885 219.43898,120.385 234.43898,119.885 z M 215.43898,114.885 C 217.97898,115.165 230.43898,106.385 269.43898,90.884997 C 271.80898,89.944997 271.93898,84.884997 292.93898,75.384997 C 294.30898,74.764997 292.43898,71.384997 306.93898,59.384997 C 314.10898,53.454997 289.43898,54.384997 283.93898,55.384997 C 278.43898,56.384997 264.93898,67.384997 264.93898,67.384997 C 264.93898,67.384997 280.11898,55.314997 274.93898,56.884997 C 263.43898,60.384997 233.43898,93.384997 223.43898,107.385 C 213.43898,121.385 239.93898,83.384997 246.43898,77.384997 C 252.93898,71.384997 196.93898,112.885 215.43898,114.885 z M 327.93898,95.384997 C 342.45898,98.294997 340.93898,76.884997 333.43898,75.884997 C 321.86898,74.344997 299.82898,75.064997 293.43898,77.384997 C 276.93898,83.384997 272.60898,89.414997 273.93898,89.884997 C 302.43898,99.884997 322.93898,94.384997 327.93898,95.384997 z M 327.43898,73.384997 C 333.35898,74.124997 343.43898,76.384997 343.93898,68.384997 C 344.18898,64.364997 357.93898,71.384997 360.93898,71.884997 C 363.41898,72.294997 350.43898,67.094997 345.93898,63.884997 C 342.43898,61.384997 341.82898,58.524997 341.43898,58.384997 C 309.43898,46.884997 295.93898,73.884997 295.93898,73.884997 C 295.93898,73.884997 323.43898,72.884997 327.43898,73.384997 z M 392.93898,29.384997 C 387.93898,21.384997 378.97898,23.844997 375.93898,20.384997 C 361.43898,3.8849975 327.85898,25.044997 355.43898,22.884997 C 387.43898,20.384997 393.52898,30.334997 392.93898,29.384997 z M 368.93898,33.384997 C 382.44898,33.384997 388.43898,39.384997 387.43898,38.384997 C 380.43898,31.384997 374.43898,32.884997 372.93898,30.884997 C 364.01898,18.994997 337.43898,31.384997 339.43898,34.384997 C 341.43898,37.384997 365.43898,33.384997 368.93898,33.384997 z M 322.43898,42.884997 C 301.43898,47.884997 310.43898,55.384997 312.93898,54.884997 C 332.36898,51.004997 326.81898,41.844997 322.43898,42.884997 z M 332.93898,18.884997 C 323.43898,19.884997 322.79898,37.194997 327.43898,33.884997 C 334.43898,28.884997 342.43898,17.884997 332.93898,18.884997 z M 307.93898,42.384997 C 321.93898,36.884997 311.43898,34.384997 306.93898,34.884997 C 302.43898,35.384997 299.10898,42.214997 300.43898,44.884997 C 303.43898,50.884997 305.22898,43.454997 307.93898,42.384997 z M 351.93898,87.884997 C 356.43898,85.384997 350.93898,79.384997 346.93898,81.884997 C 342.93898,84.384997 347.43898,90.384997 351.93898,87.884997 z M 342.43898,45.384997 C 354.20898,57.154997 358.93898,50.884997 361.43898,49.884997 C 369.55898,46.634997 378.43898,55.384997 376.93898,53.884997 C 369.65898,46.604997 364.93898,47.884997 363.93898,46.384997 C 356.32898,34.964997 344.97898,42.204997 342.43898,42.384997 C 335.43898,42.884997 326.74898,47.794997 329.93898,46.884997 C 333.43898,45.884997 340.93898,43.884997 342.43898,45.384997 z M 375.93898,10.884997 C 382.93898,5.8849975 373.71898,4.6149975 371.93898,4.8849975 C 365.43898,5.8849975 368.93898,15.884997 375.93898,10.884997 z M 216.93898,147.885 C 222.43898,154.385 283.93898,251.885 274.43898,219.385 C 273.14898,214.965 277.93898,232.885 283.43898,222.885 C 284.97898,220.085 293.58898,219.795 266.93898,175.385 C 265.43898,172.885 244.93898,164.885 224.43898,142.385 C 221.33898,138.975 212.36898,142.485 216.93898,147.885 z M 272.43898,182.385 C 276.93898,189.385 288.12898,212.835 288.93898,216.385 C 291.43898,227.385 298.43898,214.885 299.93898,215.385 C 313.09898,219.775 303.43898,207.885 302.43898,204.885 C 293.26898,177.385 271.93898,179.885 271.93898,179.885 C 271.93898,179.885 267.93898,175.385 272.43898,182.385 z M 245.93898,222.885 C 258.57898,240.855 263.43898,233.885 265.93898,231.885 C 273.63898,225.725 224.65898,162.905 221.43898,158.885 C 217.43898,153.885 217.43898,182.385 245.93898,222.885 z M 292.43898,185.885 C 298.93898,190.885 306.17898,211.955 309.93898,211.385 C 319.93898,209.885 313.93898,201.385 316.43898,202.885 C 318.93898,204.385 323.93898,201.715 322.43898,198.885 C 309.93898,175.385 290.43898,182.885 290.43898,182.885 C 290.43898,182.885 285.93898,180.885 292.43898,185.885 z M 227.93898,135.385 C 208.43898,135.385 274.43898,189.385 293.43898,178.885 C 297.37898,176.705 288.43898,175.385 289.93898,163.885 C 290.21898,161.785 276.43898,157.885 276.43898,144.885 C 276.43898,140.645 268.51898,138.885 243.43898,138.885 C 238.93898,138.885 248.34898,135.385 227.93898,135.385 z M 299.93898,180.385 C 318.20898,182.415 322.54898,196.565 324.93898,194.885 C 353.43898,174.885 302.20898,166.725 292.93898,167.885 C 288.93898,168.385 295.43898,179.885 299.93898,180.385 z M 230.93898,130.885 C 234.43898,133.385 246.43898,143.385 284.93898,134.885 C 286.40898,134.565 255.93898,134.385 251.93898,133.385 C 247.93898,132.385 228.56898,129.195 230.93898,130.885 z M 297.43898,165.385 C 334.93898,174.385 325.03898,168.125 326.43898,167.385 C 334.93898,162.885 325.64898,161.995 326.93898,160.385 C 331.14898,155.125 319.93898,151.885 296.43898,149.385 C 290.87898,148.795 279.85898,146.035 279.43898,146.885 C 275.93898,153.885 292.64898,164.235 297.43898,165.385 z M 303.43898,148.885 C 335.93898,154.385 315.54898,144.195 315.93898,143.885 C 327.43898,134.885 289.43898,134.885 289.43898,134.885 C 289.43898,134.885 273.10898,138.765 273.43898,139.385 C 277.93898,147.885 299.46898,148.215 303.43898,148.885 z M 241.93898,220.385 C 241.93898,220.385 212.93898,173.885 218.93898,154.885 C 220.14898,151.075 205.93898,132.385 212.43898,163.885 C 212.53898,164.375 211.20898,157.195 208.93898,153.885 C 206.66898,150.575 203.49898,151.665 205.43898,161.385 C 210.32898,185.815 241.93898,220.385 241.93898,220.385 z M 281.43898,50.384997 C 288.93898,48.384997 285.43898,45.884997 280.93898,44.884997 C 276.43898,43.884997 273.93898,52.384997 281.43898,50.384997 z M 179.71898,115.885 C 155.43898,102.185 129.35898,92.634997 127.54898,92.884997 C 106.27898,95.884997 112.89898,97.884997 80.958983,97.884997 C 55.128983,97.884997 63.228983,126.385 75.388983,122.385 C 78.608983,121.325 127.11898,114.825 152.87898,121.885 C 156.68898,122.935 162.96898,119.785 166.04898,119.885 C 181.23898,120.385 183.26898,117.885 179.71898,115.885 z M 153.88898,77.384997 C 160.46898,83.384997 187.31898,121.385 177.18898,107.385 C 167.05898,93.384997 136.66898,60.384997 125.01898,56.884997 C 119.77898,55.314997 135.14898,67.384997 135.14898,67.384997 C 135.14898,67.384997 121.47898,56.384997 115.89898,55.384997 C 110.32898,54.384997 85.348983,53.454997 92.608983,59.384997 C 107.28898,71.384997 105.39898,74.764997 106.78898,75.384997 C 128.05898,84.884997 128.18898,89.944997 130.58898,90.884997 C 170.09898,106.385 182.71898,115.165 185.28898,114.885 C 204.02898,112.885 147.30898,71.384997 153.88898,77.384997 z M 126.02898,89.884997 C 127.38898,89.414997 122.99898,83.384997 106.27898,77.384997 C 99.808983,75.064997 77.478983,74.344997 65.758983,75.884997 C 58.168983,76.884997 56.628983,98.294997 71.328983,95.384997 C 76.398983,94.384997 97.158983,99.884997 126.02898,89.884997 z M 103.74898,73.884997 C 103.74898,73.884997 90.068983,46.884997 57.658983,58.384997 C 57.268983,58.524997 56.648983,61.384997 53.098983,63.884997 C 48.548983,67.094997 35.398983,72.294997 37.908983,71.884997 C 40.948983,71.384997 54.868983,64.364997 55.128983,68.384997 C 55.628983,76.384997 65.848983,74.124997 71.838983,73.384997 C 75.888983,72.884997 103.74898,73.884997 103.74898,73.884997 z M 43.478983,22.884997 C 71.408983,25.044997 37.398983,3.8849975 22.708983,20.384997 C 19.628983,23.844997 10.558983,21.384997 5.4889833,29.384997 C 4.8889833,30.334997 11.058983,20.384997 43.478983,22.884997 z M 59.688983,34.384997 C 61.708983,31.384997 34.788983,18.994997 25.748983,30.884997 C 24.228983,32.884997 18.148983,31.384997 11.058983,38.384997 C 10.048983,39.384997 16.118983,33.384997 29.798983,33.384997 C 33.348983,33.384997 57.658983,37.384997 59.688983,34.384997 z M 76.908983,42.884997 C 98.178983,47.884997 89.058983,55.384997 86.528983,54.884997 C 66.848983,51.004997 72.468983,41.844997 76.908983,42.884997 z M 71.838983,33.884997 C 76.538983,37.194997 75.888983,19.884997 66.268983,18.884997 C 56.648983,17.884997 64.748983,28.884997 71.838983,33.884997 z M 99.188983,44.884997 C 100.53898,42.214997 97.158983,35.384997 92.608983,34.884997 C 88.048983,34.384997 77.408983,36.884997 91.588983,42.384997 C 94.338983,43.454997 96.148983,50.884997 99.188983,44.884997 z M 52.088983,81.884997 C 48.038983,79.384997 42.458983,85.384997 47.018983,87.884997 C 51.578983,90.384997 56.138983,84.384997 52.088983,81.884997 z M 69.308983,46.884997 C 72.538983,47.794997 63.738983,42.884997 56.648983,42.384997 C 54.068983,42.204997 42.578983,34.964997 34.868983,46.384997 C 33.848983,47.884997 29.068983,46.604997 21.698983,53.884997 C 20.178983,55.384997 29.168983,46.634997 37.398983,49.884997 C 39.928983,50.884997 44.728983,57.154997 56.648983,45.384997 C 58.168983,43.884997 65.758983,45.884997 69.308983,46.884997 z M 26.758983,4.8849975 C 24.958983,4.6149975 15.618983,5.8849975 22.708983,10.884997 C 29.798983,15.884997 33.348983,5.8849975 26.758983,4.8849975 z M 176.17898,142.385 C 155.40898,164.885 134.63898,172.885 133.11898,175.385 C 106.12898,219.795 114.84898,220.085 116.40898,222.885 C 121.97898,232.885 126.83898,214.965 125.52898,219.385 C 115.89898,251.885 178.19898,154.385 183.76898,147.885 C 188.39898,142.485 179.31898,138.975 176.17898,142.385 z M 128.05898,179.885 C 128.05898,179.885 106.44898,177.385 97.158983,204.885 C 96.148983,207.885 86.368983,219.775 99.698983,215.385 C 101.21898,214.885 108.30898,227.385 110.83898,216.385 C 111.65898,212.835 122.99898,189.385 127.54898,182.385 C 132.10898,175.385 128.05898,179.885 128.05898,179.885 z M 179.20898,158.885 C 175.95898,162.905 126.33898,225.725 134.13898,231.885 C 136.66898,233.885 141.58898,240.855 154.39898,222.885 C 183.26898,182.385 183.26898,153.885 179.20898,158.885 z M 109.31898,182.885 C 109.31898,182.885 89.568983,175.385 76.908983,198.885 C 75.378983,201.715 80.448983,204.385 82.978983,202.885 C 85.518983,201.385 79.438983,209.885 89.568983,211.385 C 93.378983,211.955 100.70898,190.885 107.28898,185.885 C 113.87898,180.885 109.31898,182.885 109.31898,182.885 z M 156.92898,138.885 C 131.51898,138.885 123.49898,140.645 123.49898,144.885 C 123.49898,157.885 109.54898,161.785 109.82898,163.885 C 111.34898,175.385 102.28898,176.705 106.27898,178.885 C 125.52898,189.385 192.37898,135.385 172.62898,135.385 C 151.95898,135.385 161.48898,138.885 156.92898,138.885 z M 106.78898,167.885 C 97.398983,166.725 45.498983,174.885 74.368983,194.885 C 76.788983,196.565 81.188983,182.415 99.698983,180.385 C 104.25898,179.885 110.83898,168.385 106.78898,167.885 z M 148.31898,133.385 C 144.26898,134.385 113.40898,134.565 114.88898,134.885 C 153.88898,143.385 166.04898,133.385 169.58898,130.885 C 171.98898,129.195 152.36898,132.385 148.31898,133.385 z M 120.45898,146.885 C 120.02898,146.035 108.86898,148.795 103.23898,149.385 C 79.438983,151.885 68.078983,155.125 72.348983,160.385 C 73.648983,161.995 64.238983,162.885 72.848983,167.385 C 74.268983,168.125 64.238983,174.385 102.22898,165.385 C 107.07898,164.235 124.00898,153.885 120.45898,146.885 z M 126.53898,139.385 C 126.87898,138.765 110.32898,134.885 110.32898,134.885 C 110.32898,134.885 71.838983,134.885 83.488983,143.885 C 83.888983,144.195 63.228983,154.385 96.148983,148.885 C 100.17898,148.215 121.97898,147.885 126.53898,139.385 z M 195.41898,161.385 C 197.38898,151.665 194.16898,150.575 191.87898,153.885 C 189.57898,157.195 188.22898,164.375 188.32898,163.885 C 194.91898,132.385 180.52898,151.075 181.74898,154.885 C 187.81898,173.885 158.44898,220.385 158.44898,220.385 C 158.44898,220.385 190.46898,185.815 195.41898,161.385 z M 118.93898,44.884997 C 114.37898,45.884997 110.83898,48.384997 118.43898,50.384997 C 126.02898,52.384997 123.49898,43.884997 118.93898,44.884997 z"
       id="path8" />
    <path
       style="fill:#fff6e3;stroke:none;stroke-width:1"
       d="M 354.93178,52.234523 C 350.47178,52.794523 346.43178,53.234523 345.43178,47.734523 C 344.43178,42.234523 346.93178,40.234523 354.43178,42.234523 C 361.93178,44.234523 366.93178,50.734523 354.93178,52.234523 z M 318.43178,55.734523 C 318.43178,55.734523 299.71178,60.154523 316.93178,47.234523 C 324.93178,41.234523 325.43178,46.234523 325.93178,49.234523 C 326.68178,53.704523 318.43178,55.734523 318.43178,55.734523 z M 375.43178,15.234523 C 367.08178,13.564523 367.43178,8.7345228 376.43178,6.7345228 C 377.90178,6.4145228 380.43178,16.234523 375.43178,15.234523 z M 380.43178,15.234523 C 382.93178,14.734523 386.93178,15.734523 387.43178,19.234523 C 387.93178,22.734523 383.93178,24.734523 381.43178,22.734523 C 378.93178,20.734523 377.93178,15.734523 380.43178,15.234523 z M 374.43178,26.234523 C 376.93178,25.234523 384.43178,26.734523 383.93178,29.734523 C 383.43178,32.734523 377.43178,33.234523 374.93178,31.734523 C 372.43178,30.234523 371.93178,27.234523 374.43178,26.234523 z M 375.43178,43.734523 C 378.43178,41.234523 381.93178,43.734523 382.93178,45.234523 C 383.93178,46.734523 378.93178,48.734523 377.43178,49.234523 C 375.93178,49.734523 372.43178,46.234523 375.43178,43.734523 z M 386.93178,6.7345228 C 386.93178,6.7345228 390.93178,6.7345228 389.93178,8.2345228 C 388.93178,9.7345228 385.93178,9.7345228 385.93178,9.7345228 L 386.93178,6.7345228 z M 392.93178,15.734523 C 392.93178,15.734523 396.93178,15.734523 395.93178,17.234523 C 394.93178,18.734523 391.93178,18.734523 391.93178,18.734523 L 392.93178,15.734523 z M 360.43178,63.734523 C 360.43178,63.734523 365.43178,65.734523 364.43178,67.234523 C 363.43178,68.734523 361.93178,71.234523 358.43178,67.734523 C 354.93178,64.234523 360.43178,63.734523 360.43178,63.734523 z M 346.93178,83.234523 C 349.93178,80.734523 353.43178,83.234523 354.43178,84.734523 C 355.43178,86.234523 350.43178,88.234523 348.93178,88.734523 C 347.43178,89.234523 343.93178,85.734523 346.93178,83.234523 z M 348.93178,73.234523 C 351.93178,70.734523 354.43178,74.234523 355.43178,75.734523 C 356.43178,77.234523 352.43178,78.234523 350.93178,78.734523 C 349.43178,79.234523 345.93178,75.734523 348.93178,73.234523 z M 331.93178,39.734523 C 328.36178,39.934523 322.43178,38.234523 331.43178,32.234523 C 339.75178,26.694523 339.43178,28.234523 339.93178,31.234523 C 340.68178,35.704523 335.50178,39.544523 331.93178,39.734523 z M 301.43178,48.734523 C 301.43178,48.734523 297.93178,45.734523 304.93178,39.734523 C 312.53178,33.234523 311.43178,35.734523 311.93178,38.734523 C 312.68178,43.204523 301.43178,48.734523 301.43178,48.734523 z M 332.43178,22.234523 C 332.43178,22.234523 338.43178,21.234523 337.43178,22.734523 C 336.43178,24.234523 333.93178,29.734523 330.43178,26.234523 C 326.93178,22.734523 332.43178,22.234523 332.43178,22.234523 z M 365.93178,52.734523 C 367.31178,52.734523 368.43178,53.864523 368.43178,55.234523 C 368.43178,56.614523 367.31178,57.734523 365.93178,57.734523 C 364.56178,57.734523 363.43178,56.614523 363.43178,55.234523 C 363.43178,53.864523 364.56178,52.734523 365.93178,52.734523 z M 360.93178,77.234523 C 362.31178,77.234523 363.43178,78.364523 363.43178,79.734523 C 363.43178,81.114523 362.31178,82.234523 360.93178,82.234523 C 359.56178,82.234523 358.43178,81.114523 358.43178,79.734523 C 358.43178,78.364523 359.56178,77.234523 360.93178,77.234523 z M 356.93178,87.234523 C 358.31178,87.234523 359.43178,88.364523 359.43178,89.734523 C 359.43178,91.114523 358.31178,92.234523 356.93178,92.234523 C 355.56178,92.234523 354.43178,91.114523 354.43178,89.734523 C 354.43178,88.364523 355.56178,87.234523 356.93178,87.234523 z M 340.93178,93.734523 C 342.31178,93.734523 343.43178,94.864523 343.43178,96.234523 C 343.43178,97.614523 342.31178,98.734523 340.93178,98.734523 C 339.56178,98.734523 338.43178,97.614523 338.43178,96.234523 C 338.43178,94.864523 339.56178,93.734523 340.93178,93.734523 z M 349.43178,95.234523 C 350.81178,95.234523 353.43178,97.364523 353.43178,98.734523 C 353.43178,100.11452 350.81178,100.23452 349.43178,100.23452 C 348.06178,100.23452 346.93178,99.114523 346.93178,97.734523 C 346.93178,96.364523 348.06178,95.234523 349.43178,95.234523 z M 373.43178,56.234523 C 374.81178,56.234523 375.93178,57.364523 375.93178,58.734523 C 375.93178,60.114523 374.81178,61.234523 373.43178,61.234523 C 372.06178,61.234523 370.93178,60.114523 370.93178,58.734523 C 370.93178,57.364523 372.06178,56.234523 373.43178,56.234523 z M 386.93178,32.734523 C 388.31178,32.734523 389.43178,33.864523 389.43178,35.234523 C 389.43178,36.614523 388.31178,37.734523 386.93178,37.734523 C 385.56178,37.734523 384.43178,36.614523 384.43178,35.234523 C 384.43178,33.864523 385.56178,32.734523 386.93178,32.734523 z M 291.93178,40.734523 C 294.25178,41.664523 305.43178,34.234523 301.93178,33.234523 C 298.43178,32.234523 289.43178,39.734523 291.93178,40.734523 z M 310.93178,27.734523 C 313.43178,28.234523 320.93178,25.234523 317.43178,24.234523 C 313.93178,23.234523 308.29178,27.214523 310.93178,27.734523 z M 262.93178,58.234523 C 268.43178,55.234523 283.93178,47.734523 276.43178,48.734523 C 268.93178,49.734523 258.21178,60.814523 262.93178,58.234523 z M 355.43178,8.7345228 C 357.93178,9.2345228 365.43178,6.2345228 361.93178,5.2345228 C 358.43178,4.2345228 352.79178,8.2145228 355.43178,8.7345228 z M 283.43178,45.234523 C 285.93178,45.734523 290.93178,43.234523 287.43178,42.234523 C 283.93178,41.234523 280.79178,44.714523 283.43178,45.234523 z M 346.43178,107.73452 C 347.81178,107.73452 348.93178,109.36452 348.93178,110.73452 C 348.93178,112.11452 348.31178,112.23452 346.93178,112.23452 C 345.56178,112.23452 344.43178,111.11452 344.43178,109.73452 C 344.43178,108.36452 345.06178,107.73452 346.43178,107.73452 z M 338.93178,107.23452 C 340.31178,107.23452 342.43178,107.86452 342.43178,109.23452 C 342.43178,110.61452 339.81178,110.23452 338.43178,110.23452 C 337.06178,110.23452 335.93178,109.11452 335.93178,107.73452 C 335.93178,106.36452 337.56178,107.23452 338.93178,107.23452 z M 340.93178,121.73452 C 342.31178,121.73452 344.93178,123.86452 344.93178,125.23452 C 344.93178,126.61452 342.31178,126.73452 340.93178,126.73452 C 339.56178,126.73452 338.43178,125.61452 338.43178,124.23452 C 338.43178,122.86452 339.56178,121.73452 340.93178,121.73452 z M 328.93178,142.23452 C 332.93178,141.23452 332.93178,143.23452 333.93178,146.73452 C 334.93178,150.23452 342.00178,161.61452 330.43178,147.73452 C 327.93178,144.73452 324.93178,143.23452 328.93178,142.23452 z M 340.93178,154.23452 C 342.31178,154.23452 343.43178,155.36452 343.43178,156.73452 C 343.43178,158.11452 342.31178,159.23452 340.93178,159.23452 C 339.56178,159.23452 338.43178,158.11452 338.43178,156.73452 C 338.43178,155.36452 339.56178,154.23452 340.93178,154.23452 z M 343.43178,163.23452 C 344.81178,163.23452 345.93178,164.36452 345.93178,165.73452 C 345.93178,167.11452 344.81178,168.23452 343.43178,168.23452 C 342.06178,168.23452 340.93178,167.11452 340.93178,165.73452 C 340.93178,164.36452 342.06178,163.23452 343.43178,163.23452 z M 343.60178,172.23452 C 344.97178,172.23452 346.93178,175.36452 346.93178,176.73452 C 346.93178,178.11452 345.81178,179.23452 344.43178,179.23452 C 343.06178,179.23452 340.27178,177.61452 340.27178,176.23452 C 340.27178,174.86452 342.22178,172.23452 343.60178,172.23452 z M 344.93178,188.23452 C 346.31178,188.23452 345.93178,188.36452 345.93178,189.73452 C 345.93178,191.11452 345.81178,190.23452 344.43178,190.23452 C 343.06178,190.23452 343.43178,191.11452 343.43178,189.73452 C 343.43178,188.36452 343.56178,188.23452 344.93178,188.23452 z M 331.43178,155.23452 C 332.81178,155.23452 332.43178,155.36452 332.43178,156.73452 C 332.43178,158.11452 332.31178,157.23452 330.93178,157.23452 C 329.56178,157.23452 329.93178,158.11452 329.93178,156.73452 C 329.93178,155.36452 330.06178,155.23452 331.43178,155.23452 z M 334.43178,167.73452 C 335.81178,167.73452 335.43178,167.86452 335.43178,169.23452 C 335.43178,170.61452 335.64178,174.23452 334.27178,174.23452 C 332.89178,174.23452 332.93178,170.61452 332.93178,169.23452 C 332.93178,167.86452 333.06178,167.73452 334.43178,167.73452 z M 337.93178,181.73452 C 339.31178,181.73452 338.93178,181.86452 338.93178,183.23452 C 338.93178,184.61452 338.81178,183.73452 337.43178,183.73452 C 336.06178,183.73452 336.43178,184.61452 336.43178,183.23452 C 336.43178,181.86452 336.56178,181.73452 337.93178,181.73452 z M 331.77178,195.23452 C 333.14178,195.23452 332.93178,195.36452 332.93178,196.73452 C 332.93178,198.11452 332.64178,197.23452 331.27178,197.23452 C 329.89178,197.23452 330.43178,198.11452 330.43178,196.73452 C 330.43178,195.36452 330.39178,195.23452 331.77178,195.23452 z M 340.60178,198.57452 C 341.97178,198.57452 343.27178,200.52452 343.27178,201.90452 C 343.27178,203.27452 340.31178,205.73452 338.93178,205.73452 C 337.56178,205.73452 337.93178,206.61452 337.93178,205.23452 C 337.93178,203.86452 339.22178,198.57452 340.60178,198.57452 z M 334.93178,212.90452 C 336.31178,212.90452 338.60178,212.52452 338.60178,213.90452 C 338.60178,215.27452 335.31178,217.73452 333.93178,217.73452 C 332.56178,217.73452 332.93178,218.61452 332.93178,217.23452 C 332.93178,215.86452 333.56178,212.90452 334.93178,212.90452 z M 326.43178,205.73452 C 327.81178,205.73452 327.43178,205.86452 327.43178,207.23452 C 327.43178,208.61452 327.31178,207.73452 325.93178,207.73452 C 324.56178,207.73452 324.93178,208.61452 324.93178,207.23452 C 324.93178,205.86452 325.06178,205.73452 326.43178,205.73452 z M 323.93178,224.90452 C 325.31178,224.90452 326.60178,226.52452 326.60178,227.90452 C 326.60178,229.27452 324.31178,228.73452 322.93178,228.73452 C 321.56178,228.73452 321.93178,229.61452 321.93178,228.23452 C 321.93178,226.86452 322.56178,224.90452 323.93178,224.90452 z M 315.60178,230.23452 C 316.97178,230.23452 316.27178,231.86452 316.27178,233.23452 C 316.27178,234.61452 311.31178,237.73452 309.93178,237.73452 C 308.56178,237.73452 308.93178,238.61452 308.93178,237.23452 C 308.93178,235.86452 314.22178,230.23452 315.60178,230.23452 z M 316.43178,214.23452 C 317.81178,214.23452 317.43178,214.36452 317.43178,215.73452 C 317.43178,217.11452 317.31178,216.23452 315.93178,216.23452 C 314.56178,216.23452 314.93178,217.11452 314.93178,215.73452 C 314.93178,214.36452 315.06178,214.23452 316.43178,214.23452 z M 304.43178,222.73452 C 305.81178,222.73452 310.27178,224.52452 310.27178,225.90452 C 310.27178,227.27452 304.64178,229.57452 303.27178,229.57452 C 301.89178,229.57452 300.93178,227.27452 300.93178,225.90452 C 300.93178,224.52452 303.06178,222.73452 304.43178,222.73452 z M 291.43178,227.23452 C 292.81178,227.23452 292.43178,227.36452 292.43178,228.73452 C 292.43178,230.11452 292.31178,229.23452 290.93178,229.23452 C 289.56178,229.23452 289.93178,230.11452 289.93178,228.73452 C 289.93178,227.36452 290.06178,227.23452 291.43178,227.23452 z M 299.43178,239.23452 C 300.81178,239.23452 300.43178,239.36452 300.43178,240.73452 C 300.43178,242.11452 300.31178,241.23452 298.93178,241.23452 C 297.56178,241.23452 297.93178,242.11452 297.93178,240.73452 C 297.93178,239.36452 298.06178,239.23452 299.43178,239.23452 z M 296.43178,240.23452 C 297.81178,240.23452 297.43178,240.36452 297.43178,241.73452 C 297.43178,243.11452 297.31178,242.23452 295.93178,242.23452 C 294.56178,242.23452 294.93178,243.11452 294.93178,241.73452 C 294.93178,240.36452 295.06178,240.23452 296.43178,240.23452 z M 284.93178,240.57452 C 285.85178,240.57452 286.93178,241.98452 286.93178,242.90452 C 286.93178,243.82452 286.85178,243.23452 285.93178,243.23452 C 285.02178,243.23452 282.60178,244.48452 282.60178,243.57452 C 282.60178,242.65452 284.02178,240.57452 284.93178,240.57452 z M 287.93178,243.23452 C 288.85178,243.23452 288.60178,243.32452 288.60178,244.23452 C 288.60178,245.15452 288.52178,244.57452 287.60178,244.57452 C 286.68178,244.57452 286.93178,245.15452 286.93178,244.23452 C 286.93178,243.32452 287.02178,243.23452 287.93178,243.23452 z M 282.60178,230.23452 C 283.52178,230.23452 284.93178,233.65452 284.93178,234.57452 C 284.93178,235.48452 281.85178,235.23452 280.93178,235.23452 C 280.02178,235.23452 278.60178,232.48452 278.60178,231.57452 C 278.60178,230.65452 281.68178,230.23452 282.60178,230.23452 z M 271.27178,241.23452 C 272.64178,241.23452 272.43178,241.36452 272.43178,242.73452 C 272.43178,244.11452 272.14178,243.23452 270.77178,243.23452 C 269.39178,243.23452 269.93178,244.11452 269.93178,242.73452 C 269.93178,241.36452 269.89178,241.23452 271.27178,241.23452 z M 268.27178,234.23452 C 269.64178,234.23452 267.60178,237.52452 267.60178,238.90452 C 267.60178,240.27452 263.14178,240.73452 261.77178,240.73452 C 260.39178,240.73452 262.93178,238.94452 262.93178,237.57452 C 262.93178,236.19452 266.89178,234.23452 268.27178,234.23452 z M 43.431778,51.404523 C 47.901778,51.964523 51.931778,52.404523 52.931778,46.904523 C 53.931778,41.404523 51.431778,39.404523 43.931778,41.404523 C 36.431778,43.404523 31.431778,49.904523 43.431778,51.404523 z M 79.931778,54.904523 C 79.931778,54.904523 98.651778,59.314523 81.431778,46.404523 C 73.431778,40.404523 72.931778,45.404523 72.431778,48.404523 C 71.691778,52.874523 79.931778,54.904523 79.931778,54.904523 z M 22.931778,14.404523 C 31.281778,12.734523 30.931778,7.9045228 21.931778,5.9045228 C 20.471778,5.5745228 17.931778,15.404523 22.931778,14.404523 z M 17.931778,14.404523 C 15.431778,13.904523 11.431778,14.904523 10.931778,18.404523 C 10.431778,21.904523 14.431778,23.904523 16.931778,21.904523 C 19.431778,19.904523 20.431778,14.904523 17.931778,14.404523 z M 23.931778,25.404523 C 21.431778,24.404523 13.931778,25.904523 14.431778,28.904523 C 14.931778,31.904523 20.931778,32.404523 23.431778,30.904523 C 25.931778,29.404523 26.431778,26.404523 23.931778,25.404523 z M 22.931778,42.904523 C 19.931778,40.404523 16.431778,42.904523 15.431778,44.404523 C 14.431778,45.904523 19.431778,47.904523 20.931778,48.404523 C 22.431778,48.904523 25.931778,45.404523 22.931778,42.904523 z M 11.431778,5.9045228 C 11.431778,5.9045228 7.431778,5.9045228 8.431778,7.4045228 C 9.431778,8.9045228 12.431778,8.9045228 12.431778,8.9045228 L 11.431778,5.9045228 z M 5.431778,14.904523 C 5.431778,14.904523 1.431778,14.904523 2.431778,16.404523 C 3.431778,17.904523 6.431778,17.904523 6.431778,17.904523 L 5.431778,14.904523 z M 37.931778,62.904523 C 37.931778,62.904523 32.931778,64.904523 33.931778,66.404523 C 34.931778,67.904523 36.431778,70.404523 39.931778,66.904523 C 43.431778,63.404523 37.931778,62.904523 37.931778,62.904523 z M 51.431778,82.404523 C 48.431778,79.904523 44.931778,82.404523 43.931778,83.904523 C 42.931778,85.404523 47.931778,87.404523 49.431778,87.904523 C 50.931778,88.404523 54.431778,84.904523 51.431778,82.404523 z M 49.431778,72.404523 C 46.431778,69.904523 43.931778,73.404523 42.931778,74.904523 C 41.931778,76.404523 45.931778,77.404523 47.431778,77.904523 C 48.931778,78.404523 52.431778,74.904523 49.431778,72.404523 z M 66.431778,38.904523 C 70.001778,39.104523 75.931778,37.404523 66.931778,31.404523 C 58.611778,25.854523 58.931778,27.404523 58.431778,30.404523 C 57.691778,34.874523 62.861778,38.704523 66.431778,38.904523 z M 96.931778,47.904523 C 96.931778,47.904523 100.43178,44.904523 93.431778,38.904523 C 85.841778,32.394523 86.931778,34.904523 86.431778,37.904523 C 85.691778,42.374523 96.931778,47.904523 96.931778,47.904523 z M 65.931778,21.404523 C 65.931778,21.404523 59.931778,20.404523 60.931778,21.904523 C 61.931778,23.404523 64.431778,28.904523 67.931778,25.404523 C 71.431778,21.904523 65.931778,21.404523 65.931778,21.404523 z M 32.431778,51.904523 C 31.061778,51.904523 29.931778,53.034523 29.931778,54.404523 C 29.931778,55.784523 31.061778,56.904523 32.431778,56.904523 C 33.811778,56.904523 34.931778,55.784523 34.931778,54.404523 C 34.931778,53.034523 33.811778,51.904523 32.431778,51.904523 z M 37.431778,76.404523 C 36.061778,76.404523 34.931778,77.534523 34.931778,78.904523 C 34.931778,80.284523 36.061778,81.404523 37.431778,81.404523 C 38.811778,81.404523 39.931778,80.284523 39.931778,78.904523 C 39.931778,77.534523 38.811778,76.404523 37.431778,76.404523 z M 41.431778,86.404523 C 40.061778,86.404523 38.931778,87.534523 38.931778,88.904523 C 38.931778,90.284523 40.061778,91.404523 41.431778,91.404523 C 42.811778,91.404523 43.931778,90.284523 43.931778,88.904523 C 43.931778,87.534523 42.811778,86.404523 41.431778,86.404523 z M 57.431778,92.904523 C 56.061778,92.904523 54.931778,94.034523 54.931778,95.404523 C 54.931778,96.784523 56.061778,97.904523 57.431778,97.904523 C 58.811778,97.904523 59.931778,96.784523 59.931778,95.404523 C 59.931778,94.034523 58.811778,92.904523 57.431778,92.904523 z M 48.931778,94.404523 C 47.561778,94.404523 44.931778,96.534523 44.931778,97.904523 C 44.931778,99.284523 47.561778,99.404523 48.931778,99.404523 C 50.311778,99.404523 51.431778,98.284523 51.431778,96.904523 C 51.431778,95.534523 50.311778,94.404523 48.931778,94.404523 z M 24.931778,55.404523 C 23.561778,55.404523 22.431778,56.534523 22.431778,57.904523 C 22.431778,59.284523 23.561778,60.404523 24.931778,60.404523 C 26.311778,60.404523 27.431778,59.284523 27.431778,57.904523 C 27.431778,56.534523 26.311778,55.404523 24.931778,55.404523 z M 11.431778,31.904523 C 10.061778,31.904523 8.931778,33.034523 8.931778,34.404523 C 8.931778,35.784523 10.061778,36.904523 11.431778,36.904523 C 12.811778,36.904523 13.931778,35.784523 13.931778,34.404523 C 13.931778,33.034523 12.811778,31.904523 11.431778,31.904523 z M 106.43178,39.904523 C 104.11178,40.834523 92.931778,33.404523 96.431778,32.404523 C 99.931778,31.404523 108.93178,38.904523 106.43178,39.904523 z M 87.431778,26.904523 C 84.931778,27.404523 77.431778,24.404523 80.931778,23.404523 C 84.431778,22.404523 90.071778,26.374523 87.431778,26.904523 z M 135.43178,57.404523 C 129.93178,54.404523 114.43178,46.904523 121.93178,47.904523 C 129.43178,48.904523 140.16178,59.984523 135.43178,57.404523 z M 42.931778,7.9045228 C 40.431778,8.4045228 32.931778,5.4045228 36.431778,4.4045228 C 39.931778,3.4045228 45.571778,7.3745228 42.931778,7.9045228 z M 114.93178,44.404523 C 112.43178,44.904523 107.43178,42.404523 110.93178,41.404523 C 114.43178,40.404523 117.57178,43.874523 114.93178,44.404523 z M 51.931778,106.90452 C 50.561778,106.90452 49.431778,108.53452 49.431778,109.90452 C 49.431778,111.28452 50.061778,111.40452 51.431778,111.40452 C 52.811778,111.40452 53.931778,110.28452 53.931778,108.90452 C 53.931778,107.53452 53.311778,106.90452 51.931778,106.90452 z M 59.431778,106.40452 C 58.061778,106.40452 55.931778,107.03452 55.931778,108.40452 C 55.931778,109.78452 58.561778,109.40452 59.931778,109.40452 C 61.311778,109.40452 62.431778,108.28452 62.431778,106.90452 C 62.431778,105.53452 60.811778,106.40452 59.431778,106.40452 z M 57.431778,120.90452 C 56.061778,120.90452 53.431778,123.03452 53.431778,124.40452 C 53.431778,125.78452 56.061778,125.90452 57.431778,125.90452 C 58.811778,125.90452 59.931778,124.78452 59.931778,123.40452 C 59.931778,122.03452 58.811778,120.90452 57.431778,120.90452 z M 69.431778,141.40452 C 65.431778,140.40452 65.431778,142.40452 64.431778,145.90452 C 63.431778,149.40452 56.371778,160.78452 67.931778,146.90452 C 70.431778,143.90452 73.431778,142.40452 69.431778,141.40452 z M 57.431778,153.40452 C 56.061778,153.40452 54.931778,154.52452 54.931778,155.90452 C 54.931778,157.27452 56.061778,158.40452 57.431778,158.40452 C 58.811778,158.40452 59.931778,157.27452 59.931778,155.90452 C 59.931778,154.52452 58.811778,153.40452 57.431778,153.40452 z M 54.931778,162.40452 C 53.561778,162.40452 52.431778,163.52452 52.431778,164.90452 C 52.431778,166.27452 53.561778,167.40452 54.931778,167.40452 C 56.311778,167.40452 57.431778,166.27452 57.431778,164.90452 C 57.431778,163.52452 56.311778,162.40452 54.931778,162.40452 z M 54.771778,171.40452 C 53.391778,171.40452 51.431778,174.52452 51.431778,175.90452 C 51.431778,177.27452 52.561778,178.40452 53.931778,178.40452 C 55.311778,178.40452 58.101778,176.77452 58.101778,175.40452 C 58.101778,174.02452 56.141778,171.40452 54.771778,171.40452 z M 53.431778,187.40452 C 52.061778,187.40452 52.431778,187.52452 52.431778,188.90452 C 52.431778,190.27452 52.561778,189.40452 53.931778,189.40452 C 55.311778,189.40452 54.931778,190.27452 54.931778,188.90452 C 54.931778,187.52452 54.811778,187.40452 53.431778,187.40452 z M 66.931778,154.40452 C 65.561778,154.40452 65.931778,154.52452 65.931778,155.90452 C 65.931778,157.27452 66.061778,156.40452 67.431778,156.40452 C 68.811778,156.40452 68.431778,157.27452 68.431778,155.90452 C 68.431778,154.52452 68.311778,154.40452 66.931778,154.40452 z M 63.931778,166.90452 C 62.561778,166.90452 62.931778,167.02452 62.931778,168.40452 C 62.931778,169.77452 62.731778,173.40452 64.101778,173.40452 C 65.481778,173.40452 65.431778,169.77452 65.431778,168.40452 C 65.431778,167.02452 65.311778,166.90452 63.931778,166.90452 z M 60.431778,180.90452 C 59.061778,180.90452 59.431778,181.02452 59.431778,182.40452 C 59.431778,183.77452 59.561778,182.90452 60.931778,182.90452 C 62.311778,182.90452 61.931778,183.77452 61.931778,182.40452 C 61.931778,181.02452 61.811778,180.90452 60.431778,180.90452 z M 66.601778,194.40452 C 65.231778,194.40452 65.431778,194.52452 65.431778,195.90452 C 65.431778,197.27452 65.731778,196.40452 67.101778,196.40452 C 68.481778,196.40452 67.931778,197.27452 67.931778,195.90452 C 67.931778,194.52452 67.981778,194.40452 66.601778,194.40452 z M 57.771778,197.73452 C 56.391778,197.73452 55.101778,199.69452 55.101778,201.07452 C 55.101778,202.44452 58.061778,204.90452 59.431778,204.90452 C 60.811778,204.90452 60.431778,205.77452 60.431778,204.40452 C 60.431778,203.02452 59.141778,197.73452 57.771778,197.73452 z M 63.431778,212.07452 C 62.061778,212.07452 59.771778,211.69452 59.771778,213.07452 C 59.771778,214.44452 63.061778,216.90452 64.431778,216.90452 C 65.811778,216.90452 65.431778,217.77452 65.431778,216.40452 C 65.431778,215.02452 64.811778,212.07452 63.431778,212.07452 z M 71.931778,204.90452 C 70.561778,204.90452 70.931778,205.02452 70.931778,206.40452 C 70.931778,207.77452 71.061778,206.90452 72.431778,206.90452 C 73.811778,206.90452 73.431778,207.77452 73.431778,206.40452 C 73.431778,205.02452 73.311778,204.90452 71.931778,204.90452 z M 74.431778,224.07452 C 73.061778,224.07452 71.771778,225.69452 71.771778,227.07452 C 71.771778,228.44452 74.061778,227.90452 75.431778,227.90452 C 76.811778,227.90452 76.431778,228.77452 76.431778,227.40452 C 76.431778,226.02452 75.811778,224.07452 74.431778,224.07452 z M 82.771778,229.40452 C 81.391778,229.40452 82.101778,231.02452 82.101778,232.40452 C 82.101778,233.77452 87.061778,236.90452 88.431778,236.90452 C 89.811778,236.90452 89.431778,237.77452 89.431778,236.40452 C 89.431778,235.02452 84.141778,229.40452 82.771778,229.40452 z M 81.931778,213.40452 C 80.561778,213.40452 80.931778,213.52452 80.931778,214.90452 C 80.931778,216.27452 81.061778,215.40452 82.431778,215.40452 C 83.811778,215.40452 83.431778,216.27452 83.431778,214.90452 C 83.431778,213.52452 83.311778,213.40452 81.931778,213.40452 z M 93.931778,221.90452 C 92.561778,221.90452 88.101778,223.69452 88.101778,225.07452 C 88.101778,226.44452 93.731778,228.73452 95.101778,228.73452 C 96.481778,228.73452 97.431778,226.44452 97.431778,225.07452 C 97.431778,223.69452 95.311778,221.90452 93.931778,221.90452 z M 106.93178,226.40452 C 105.56178,226.40452 105.93178,226.52452 105.93178,227.90452 C 105.93178,229.27452 106.06178,228.40452 107.43178,228.40452 C 108.81178,228.40452 108.43178,229.27452 108.43178,227.90452 C 108.43178,226.52452 108.31178,226.40452 106.93178,226.40452 z M 98.931778,238.40452 C 97.561778,238.40452 97.931778,238.52452 97.931778,239.90452 C 97.931778,241.27452 98.061778,240.40452 99.431778,240.40452 C 100.81178,240.40452 100.43178,241.27452 100.43178,239.90452 C 100.43178,238.52452 100.31178,238.40452 98.931778,238.40452 z M 101.93178,239.40452 C 100.56178,239.40452 100.93178,239.52452 100.93178,240.90452 C 100.93178,242.27452 101.06178,241.40452 102.43178,241.40452 C 103.81178,241.40452 103.43178,242.27452 103.43178,240.90452 C 103.43178,239.52452 103.31178,239.40452 101.93178,239.40452 z M 113.43178,239.73452 C 112.52178,239.73452 111.43178,241.15452 111.43178,242.07452 C 111.43178,242.98452 111.52178,242.40452 112.43178,242.40452 C 113.35178,242.40452 115.77178,243.65452 115.77178,242.73452 C 115.77178,241.82452 114.35178,239.73452 113.43178,239.73452 z M 110.43178,242.40452 C 109.52178,242.40452 109.77178,242.48452 109.77178,243.40452 C 109.77178,244.32452 109.85178,243.73452 110.77178,243.73452 C 111.68178,243.73452 111.43178,244.32452 111.43178,243.40452 C 111.43178,242.48452 111.35178,242.40452 110.43178,242.40452 z M 115.77178,229.40452 C 114.85178,229.40452 113.43178,232.82452 113.43178,233.73452 C 113.43178,234.65452 116.52178,234.40452 117.43178,234.40452 C 118.35178,234.40452 119.77178,231.65452 119.77178,230.73452 C 119.77178,229.82452 116.68178,229.40452 115.77178,229.40452 z M 127.10178,240.40452 C 125.73178,240.40452 125.93178,240.52452 125.93178,241.90452 C 125.93178,243.27452 126.23178,242.40452 127.60178,242.40452 C 128.98178,242.40452 128.43178,243.27452 128.43178,241.90452 C 128.43178,240.52452 128.48178,240.40452 127.10178,240.40452 z M 130.10178,233.40452 C 128.73178,233.40452 130.77178,236.69452 130.77178,238.07452 C 130.77178,239.44452 135.23178,239.90452 136.60178,239.90452 C 137.98178,239.90452 135.43178,238.11452 135.43178,236.73452 C 135.43178,235.36452 131.48178,233.40452 130.10178,233.40452 z M 202.20178,101.30452 C 200.83178,101.30452 201.03178,101.43452 201.03178,102.80452 C 201.03178,104.18452 201.33178,103.30452 202.70178,103.30452 C 204.08178,103.30452 203.53178,104.18452 203.53178,102.80452 C 203.53178,101.43452 203.58178,101.30452 202.20178,101.30452 z M 196.70178,101.30452 C 195.33178,101.30452 195.53178,101.43452 195.53178,102.80452 C 195.53178,104.18452 195.83178,103.30452 197.20178,103.30452 C 198.58178,103.30452 198.03178,104.18452 198.03178,102.80452 C 198.03178,101.43452 198.08178,101.30452 196.70178,101.30452 z M 202.20178,110.30452 C 200.83178,110.30452 201.03178,110.43452 201.03178,111.80452 C 201.03178,113.18452 201.33178,112.30452 202.70178,112.30452 C 204.08178,112.30452 203.53178,113.18452 203.53178,111.80452 C 203.53178,110.43452 203.58178,110.30452 202.20178,110.30452 z M 196.10178,110.20452 C 194.73178,110.20452 194.93178,110.33452 194.93178,111.70452 C 194.93178,113.08452 195.23178,112.20452 196.60178,112.20452 C 197.98178,112.20452 197.43178,113.08452 197.43178,111.70452 C 197.43178,110.33452 197.48178,110.20452 196.10178,110.20452 z M 204.20178,120.80452 C 202.83178,120.80452 203.20178,121.93452 203.20178,123.30452 C 203.20178,124.68452 203.62178,127.80452 205.00178,127.80452 C 206.37178,127.80452 205.53178,123.68452 205.53178,122.30452 C 205.53178,120.93452 205.58178,120.80452 204.20178,120.80452 z M 195.20178,120.80452 C 193.83178,120.80452 193.80178,122.03452 193.80178,123.40452 C 193.80178,124.78452 192.83178,128.00452 194.20178,128.00452 C 195.58178,128.00452 196.00178,124.18452 196.00178,122.80452 C 196.00178,121.43452 196.58178,120.80452 195.20178,120.80452 z"
       id="path10" />
  </g>
<!-- Generated by Jasc WebDraw PR4(tm) on 06/07/01 12:18:39 --></svg>
