<?xml version="1.0" encoding="UTF-8" standalone="no"?>
<!-- Created with Inkscape (http://www.inkscape.org/) -->
<svg
   xmlns:dc="http://purl.org/dc/elements/1.1/"
   xmlns:cc="http://creativecommons.org/ns#"
   xmlns:rdf="http://www.w3.org/1999/02/22-rdf-syntax-ns#"
   xmlns:svg="http://www.w3.org/2000/svg"
   xmlns="http://www.w3.org/2000/svg"
   xmlns:sodipodi="http://sodipodi.sourceforge.net/DTD/sodipodi-0.dtd"
   xmlns:inkscape="http://www.inkscape.org/namespaces/inkscape"
   id="svg2"
   sodipodi:version="0.32"
   inkscape:version="0.46"
   width="193.14557"
   height="51.09409"
   version="1.0"
   sodipodi:docname="openvg.svg"
   inkscape:output_extension="org.inkscape.output.svg.inkscape">
  <metadata
     id="metadata7">
    <rdf:RDF>
      <cc:Work
         rdf:about="">
        <dc:format>image/svg+xml</dc:format>
        <dc:type
           rdf:resource="http://purl.org/dc/dcmitype/StillImage" />
      </cc:Work>
    </rdf:RDF>
  </metadata>
  <defs
     id="defs5">
    <inkscape:perspective
       sodipodi:type="inkscape:persp3d"
       inkscape:vp_x="0 : 526.18109 : 1"
       inkscape:vp_y="0 : 1000 : 0"
       inkscape:vp_z="744.09448 : 526.18109 : 1"
       inkscape:persp3d-origin="372.04724 : 350.78739 : 1"
       id="perspective9" />
  </defs>
  <sodipodi:namedview
     inkscape:window-height="968"
     inkscape:window-width="1280"
     inkscape:pageshadow="2"
     inkscape:pageopacity="0.0"
     guidetolerance="10.0"
     gridtolerance="10.0"
     objecttolerance="10.0"
     borderopacity="1.0"
     bordercolor="#666666"
     pagecolor="#ffffff"
     id="base"
     showgrid="false"
     inkscape:zoom="1"
     inkscape:cx="-28.62536"
     inkscape:cy="35"
     inkscape:window-x="-4"
     inkscape:window-y="-4"
     inkscape:current-layer="svg2" />
  <path
     style="fill:#000000"
     d="M 71.254528,36.701077 C 71.254528,24.178426 71.47155,22.224787 72.924578,21.667207 C 73.843106,21.314735 74.910878,21.53805 75.297404,22.163464 C 75.814185,22.999632 76.545754,23.008596 78.061613,22.197333 C 80.960688,20.645795 85.427204,20.826307 87.955493,22.597189 C 92.860452,26.032756 93.295004,36.144521 88.733709,40.705816 C 86.147921,43.291604 80.687833,43.931537 77.188787,42.058904 C 75.395481,41.099156 75.254528,41.390643 75.254528,46.058904 C 75.254528,50.427421 74.989725,51.094088 73.254528,51.094088 C 71.347166,51.094088 71.254528,50.427421 71.254528,36.701077 z M 85.619669,39.021508 C 88.530576,36.731788 89.189984,31.739826 87.104824,27.778347 C 85.59166,24.903571 84.313943,24.127894 81.061232,24.109401 C 74.190697,24.070338 72.944866,37.417821 79.5699,40.087108 C 82.652611,41.329161 82.695587,41.321591 85.619669,39.021508 z M 18.695288,45.685714 C 15.362706,44.922208 9.9627064,43.236999 6.6952884,41.940804 C 0.93238201,39.654642 0.73734851,39.455508 0.18067671,35.289239 C -0.13494169,32.927072 -0.02622359,30.767602 0.42227251,30.490416 C 0.87076861,30.213231 3.3366692,31.430557 5.9020514,33.195587 C 12.786955,37.932525 19.754469,40.249151 28.885564,40.837366 C 51.554096,42.297648 69.947621,26.762861 58.492075,15.832325 C 56.986424,14.395678 53.279528,12.030325 50.254528,10.575986 C 42.475913,6.8362335 48.94574,8.3882595 57.560079,12.328491 C 64.676668,15.583645 67.853701,18.839953 68.869793,23.920411 C 70.432543,31.734164 63.123966,40.214179 51.553148,44.01261 C 42.896569,46.854364 27.269472,47.650087 18.695288,45.685714 z M 170.21642,41.844088 C 161.35047,37.373252 158.61862,25.186712 164.49257,16.310567 C 167.63924,11.555627 172.50291,9.0940875 178.75137,9.0940875 C 184.47789,9.0940875 188.71,11.426813 190.73837,15.70128 C 192.76941,19.981366 192.72786,20.094088 189.1192,20.094088 C 187.05936,20.094088 185.18911,19.23653 183.66695,17.594088 C 180.8142,14.515918 175.52292,14.24642 172.11531,17.005735 C 170.03125,18.693311 169.75453,19.758382 169.75453,26.092319 C 169.75453,32.713983 169.97089,33.453358 172.56029,35.680672 C 176.26116,38.86402 180.61981,38.819718 183.87385,35.565679 C 187.13881,32.300722 186.51992,30.671457 181.86607,30.280076 C 178.67248,30.011501 178.17723,29.649762 178.44337,27.780076 C 178.71977,25.838251 179.50875,25.538241 185.50704,25.094088 L 192.25954,24.594088 L 192.81785,27.594088 C 193.12493,29.244088 193.2363,33.294088 193.06535,36.594088 C 192.78804,41.947119 192.51143,42.628608 190.50006,42.914225 C 189.18124,43.101499 188.00583,42.609564 187.66789,41.728895 C 187.17063,40.433059 186.64908,40.492396 183.92236,42.15502 C 179.76034,44.692819 175.68216,44.600302 170.21642,41.844088 z M 97.961778,41.078451 C 96.552418,39.969851 94.867703,37.452025 94.217959,35.483284 C 91.204732,26.353115 102.34839,17.268967 109.99316,22.623571 C 112.1718,24.149547 114.64671,30.650516 113.65802,32.250242 C 113.37118,32.714357 109.78805,33.094088 105.69551,33.094088 C 99.014598,33.094088 98.254528,33.290966 98.254528,35.021508 C 98.254528,37.051915 102.61991,41.094088 104.81266,41.094088 C 105.52129,41.094088 107.43807,39.969088 109.07216,38.594088 C 110.70626,37.219088 112.31578,36.094088 112.64889,36.094088 C 114.01483,36.094088 113.10249,38.337038 110.79998,40.639543 C 107.66479,43.774733 101.65093,43.980333 97.961778,41.078451 z M 110.25453,29.094088 C 110.25453,27.088219 106.18251,24.094088 103.45453,24.094088 C 100.23861,24.094088 98.254528,25.696613 98.254528,28.294088 C 98.254528,29.827421 99.143418,30.094088 104.25453,30.094088 C 107.58786,30.094088 110.25453,29.649644 110.25453,29.094088 z M 116.46989,32.505438 C 116.66848,25.006192 117.13241,21.631433 118.00453,21.342109 C 118.69203,21.114031 119.25453,21.651477 119.25453,22.536435 C 119.25453,23.996289 119.52803,24.004014 122.20487,22.619768 C 123.82756,21.780644 126.50204,21.094088 128.14817,21.094088 C 132.90094,21.094088 134.25453,24.041364 134.25453,34.389918 C 134.25453,42.279618 134.0645,43.20453 132.50453,42.907321 C 131.03863,42.628034 130.67336,41.114437 130.25453,33.583997 L 129.75453,24.594088 L 126.37737,24.271246 C 124.51994,24.093682 122.49494,24.451812 121.87737,25.067089 C 121.25981,25.682366 120.52953,29.873326 120.25453,34.380334 C 119.83735,41.217499 119.45891,42.631146 117.96989,42.914487 C 116.33274,43.226013 116.20877,42.365716 116.46989,32.505438 z M 142.6221,41.609571 C 139.00108,32.173343 132.70021,10.080421 133.61428,10.025188 C 134.24142,9.9872925 135.91601,9.8010965 137.33559,9.6114195 C 139.80127,9.2819665 140.06709,9.7432215 143.28222,19.93032 C 145.13329,25.795392 146.97333,30.985597 147.37119,31.464108 C 147.76905,31.94262 149.52344,27.66762 151.26984,21.964108 C 153.01624,16.260597 154.7867,11.232112 155.20421,10.789696 C 155.62172,10.34728 157.41078,9.8021155 159.17992,9.5782185 C 162.22327,9.1930595 162.36439,9.3171735 161.79998,11.882611 C 161.47189,13.373924 159.07744,20.894088 156.47899,28.594088 L 151.75453,42.594088 L 147.49538,42.902033 C 144.31559,43.131938 143.0806,42.804402 142.6221,41.609571 z M 18.199851,35.643596 C 6.8284154,31.45428 2.2545284,27.063783 2.2545284,20.337601 C 2.2545284,12.223948 10.969281,4.4564985 23.191333,1.6766525 C 37.443941,-1.5650345 54.721579,-0.023434476 67.004528,5.5858915 L 72.254528,7.9834405 L 72.254528,13.038764 C 72.254528,15.819192 72.033422,18.094088 71.763181,18.094088 C 71.49294,18.094088 69.13044,16.450693 66.513181,14.442099 C 60.003912,9.4466135 54.829435,7.3102285 46.314201,6.1025505 C 37.448378,4.8451505 29.356386,5.9852115 21.447692,9.6059315 C 14.625026,12.729451 11.477447,15.465272 9.5800674,19.921064 C 8.3146274,22.892812 8.3550814,23.640215 9.9589454,26.921064 C 11.329692,29.725048 13.269994,31.363041 18.159686,33.844088 C 24.65752,37.141112 24.677359,38.029956 18.199851,35.643596 z"
     id="path2384" />
</svg>
