<?xml version="1.0" encoding="UTF-8" standalone="no"?>
<!-- Created with Inkscape (http://www.inkscape.org/) -->
<svg
   xmlns:dc="http://purl.org/dc/elements/1.1/"
   xmlns:cc="http://creativecommons.org/ns#"
   xmlns:rdf="http://www.w3.org/1999/02/22-rdf-syntax-ns#"
   xmlns:svg="http://www.w3.org/2000/svg"
   xmlns="http://www.w3.org/2000/svg"
   xmlns:sodipodi="http://sodipodi.sourceforge.net/DTD/sodipodi-0.dtd"
   xmlns:inkscape="http://www.inkscape.org/namespaces/inkscape"
   width="578.73383"
   height="494.92993"
   id="svg3188"
   sodipodi:version="0.32"
   inkscape:version="0.46"
   sodipodi:docname="donkoose.svg"
   inkscape:output_extension="org.inkscape.output.svg.inkscape"
   version="1.0">
  <defs
     id="defs3190">
    <inkscape:perspective
       sodipodi:type="inkscape:persp3d"
       inkscape:vp_x="0 : 526.18109 : 1"
       inkscape:vp_y="0 : 1000 : 0"
       inkscape:vp_z="744.09448 : 526.18109 : 1"
       inkscape:persp3d-origin="372.04724 : 350.78739 : 1"
       id="perspective3196" />
  </defs>
  <sodipodi:namedview
     id="base"
     pagecolor="#ffffff"
     bordercolor="#666666"
     borderopacity="1.0"
     gridtolerance="10000"
     guidetolerance="10"
     objecttolerance="10"
     inkscape:pageopacity="0.0"
     inkscape:pageshadow="2"
     inkscape:zoom="0.35"
     inkscape:cx="375"
     inkscape:cy="520"
     inkscape:document-units="px"
     inkscape:current-layer="layer1"
     showgrid="false"
     inkscape:window-width="1280"
     inkscape:window-height="968"
     inkscape:window-x="-4"
     inkscape:window-y="-4" />
  <metadata
     id="metadata3193">
    <rdf:RDF>
      <cc:Work
         rdf:about="">
        <dc:format>image/svg+xml</dc:format>
        <dc:type
           rdf:resource="http://purl.org/dc/dcmitype/StillImage" />
      </cc:Work>
    </rdf:RDF>
  </metadata>
  <g
     inkscape:label="Layer 1"
     inkscape:groupmode="layer"
     id="layer1"
     transform="translate(-30.63308,-187.75436)">
    <path
       id="path2396"
       style="fill:#000000;fill-opacity:1"
       d="M 184.45708,415.31914 C 180.66748,413.67068 178.76018,410.52625 179.70778,407.48913 C 180.98258,403.4029 185.14828,402.6338 191.54028,405.30454 C 196.05698,407.19172 197.93178,410.71824 196.31028,414.2769 C 195.38248,416.31335 194.47198,416.76964 191.39978,416.73776 C 189.32548,416.71623 186.20128,416.07785 184.45708,415.31914 z M 227.08838,368.94562 C 224.37048,366.74479 224.95208,362.47681 228.20728,360.73469 C 231.18888,359.13895 235.12838,361.90821 235.12838,365.59995 C 235.12838,370.69492 231.24458,372.31108 227.08838,368.94562 z M 201.58288,361.32235 C 197.23848,356.97789 199.09488,351.7769 204.99008,351.7769 C 207.29318,351.7769 211.12838,356.19927 211.12838,358.85505 C 211.12838,360.76396 207.59748,363.7769 205.36038,363.7769 C 204.63278,363.7769 202.93298,362.67235 201.58288,361.32235 z M 511.92166,680.56483 C 505.55773,676.87576 504.89007,674.17389 504.06446,648.76815 C 503.37255,627.47665 502.41251,615.64318 500.17027,600.76815 C 496.04546,573.40415 493.66838,562.57667 490.10162,554.90588 C 488.47455,551.40663 487.1433,547.49568 487.1433,546.21489 C 487.1433,540.97385 491.97961,542.0566 495.4022,548.06389 C 500.24655,556.56665 503.26392,567.36025 506.08226,586.26815 C 507.22999,593.96815 508.61477,603.19315 509.15956,606.76815 C 511.29266,620.76607 512.29903,633.00393 512.7333,650.22635 C 513.22292,669.64418 513.81453,671.93226 518.83964,673.8428 C 521.89329,675.00379 527.09736,673.59661 529.42502,670.9805 C 531.73044,668.38939 533.99317,659.73235 536.27627,644.76815 C 538.95701,627.19759 538.97531,618.29924 536.35132,608.26815 C 532.3681,593.041 532.78188,541.15673 537.12863,510.79982 C 537.97809,504.86734 537.87581,501.06285 536.63128,492.29982 C 534.20396,475.20852 532.12729,469.45994 525.179,460.59778 C 515.62875,448.41698 512.43331,447.15411 473.6433,440.23025 C 461.05412,437.98313 430.20842,437.19843 414.64019,438.72923 C 401.23918,440.04693 358.8489,440.50964 353.37862,439.39793 C 342.95715,437.27999 335.85151,433.6573 322.6433,423.72803 C 311.47713,415.33387 309.35097,413.04104 299.75056,399.04074 C 295.51613,392.86566 290.49872,386.16679 288.60075,384.15436 C 285.33269,380.68921 284.90398,380.5291 280.50703,381.13177 C 276.97234,381.85688 273.73545,384.40474 271.02763,386.78335 C 268.45639,388.96978 265.1063,391.99494 262.63556,394.77687 C 260.16482,397.55879 258.1433,400.77217 258.1433,401.9177 C 258.1433,403.06324 260.56107,409.01072 263.51613,415.13432 C 269.28338,427.08549 277.3248,450.48447 279.02707,460.26815 C 279.60124,463.56815 280.76055,472.34315 281.60332,479.76815 C 282.4461,487.19315 283.59192,494.84315 284.14959,496.76815 C 284.70727,498.69315 285.60155,507.24315 286.13689,515.76815 C 286.67223,524.29315 287.53511,534.86815 288.0544,539.26815 C 288.5737,543.66815 289.27624,556.71815 289.61562,568.26815 C 290.60754,602.02614 293.93193,648.75845 295.80453,655.26815 C 297.3853,660.76336 304.9148,662.8881 308.55466,658.8661 C 311.02989,656.131 313.06879,643.08845 313.10345,629.76815 C 313.139,616.10566 310.62386,573.12962 309.01862,559.9708 C 307.7344,549.44359 308.26476,543.54266 311.06386,537.21484 C 314.24819,530.01613 320.18553,530.15656 327.66163,537.60741 C 332.4088,542.33854 333.5378,544.67197 335.48087,553.76815 C 337.2062,561.84504 337.74871,573.95378 338.68431,625.26815 C 339.01523,643.41815 339.71238,659.9228 340.23353,661.94515 C 341.52356,666.95118 346.21815,670.76815 351.08517,670.76815 C 356.76773,670.76815 359.77144,667.87639 361.19086,661.03906 C 362.68352,653.84893 362.7104,593.2043 361.22688,579.76815 C 360.64997,574.54315 360.17086,565.09315 360.16218,558.76815 C 360.13756,540.81772 363.02809,537.36465 374.93512,541.12018 C 392.08736,546.53007 426.50703,550.08998 448.40017,548.71842 C 463.91971,547.74614 466.49081,548.39401 472.38196,554.76131 C 480.21926,563.23208 480.86044,566.84637 481.69662,607.26815 C 482.08345,625.96815 482.45471,646.28243 482.52163,652.411 C 482.65407,664.54025 483.35578,666.27531 489.39094,669.39621 C 490.90474,670.17902 492.1433,671.45081 492.1433,672.2224 C 492.1433,676.37763 484.71678,678.25899 480.36009,675.20745 C 474.51132,671.1108 473.98374,666.34225 472.23498,601.76815 C 470.97047,555.07507 472.09356,556.77169 442.44297,556.76201 C 422.06752,556.75536 389.74207,553.32083 381.24374,550.25968 C 375.96968,548.35994 371.6463,549.07085 369.61438,552.17195 C 368.35074,554.1005 368.32153,556.8937 369.39826,572.83505 C 370.13454,583.73584 370.53509,606.08182 370.3785,627.5202 C 370.13064,661.45236 369.98025,664.12892 368.02837,669.34579 C 364.57024,678.58847 358.83016,680.52207 344.62813,677.2284 C 336.77168,675.40637 334.68775,674.24755 333.10738,670.82205 C 332.34825,669.1766 331.61273,656.88536 331.03963,636.26815 C 329.08468,565.93836 328.02937,553.79708 323.47551,549.24322 C 321.98942,547.75712 321.72663,547.75625 320.25044,549.23244 C 318.3454,551.13748 318.26058,560.46153 319.97719,579.26815 C 320.57962,585.86815 321.37268,602.06815 321.73955,615.26815 C 322.30098,635.46817 322.13162,641.03484 320.66994,650.42625 C 318.09044,666.99977 315.02459,670.60781 304.6433,669.2872 C 298.30394,668.48077 296.22075,667.2941 291.79109,661.96608 C 287.77651,657.13732 287.8487,657.45835 285.67443,634.76815 C 284.80482,625.69315 283.90619,616.91815 283.67747,615.26815 C 283.44876,613.61815 282.76929,599.89315 282.16755,584.76815 C 281.56581,569.64315 280.67191,552.99315 280.1811,547.76815 C 279.69029,542.54315 278.80163,532.86815 278.20629,526.26815 C 277.61096,519.66815 276.45583,508.64315 275.63935,501.76815 C 274.82286,494.89315 273.67913,485.21815 273.09772,480.26815 C 269.75274,451.78973 256.1381,412.39953 248.08545,407.90205 C 241.77371,404.37689 231.599,410.29866 227.13546,420.09514 C 221.99941,431.36764 209.51725,441.7592 198.79993,443.68485 C 185.82931,446.01537 172.73282,439.89785 163.98022,427.42016 C 157.52232,418.2138 155.43967,406.20247 158.799,397.53839 C 159.79115,394.97953 163.54111,390.062 168.15593,385.26815 C 176.87225,376.21367 178.16969,374.02875 180.5285,364.43236 C 182.88905,354.82887 190.42239,337.65887 194.98712,331.47821 C 199.68133,325.12224 202.1433,320.48364 202.1433,317.99523 C 202.1433,316.9655 200.07591,311.88065 197.5491,306.69557 C 194.27403,299.97504 192.28279,294.03373 190.6141,286.00349 C 189.05614,278.50609 187.2479,272.94661 185.2072,269.37983 C 181.68696,263.22709 174.54702,256.25261 169.6918,254.22397 C 167.85989,253.45855 159.22457,252.31231 150.50218,251.67678 C 136.72897,250.67322 133.19664,250.74146 123.64334,252.19561 C 117.59334,253.1165 103.64334,254.37005 92.643339,254.98127 L 72.643339,256.09258 L 61.643339,252.96386 C 55.593338,251.24306 47.724138,249.12704 44.156238,248.26159 C 33.632039,245.70881 28.435039,238.79225 31.510539,231.43169 C 33.291539,227.1691 35.823438,225.44686 43.581738,223.22068 C 48.717538,221.74699 52.366538,221.60772 70.581739,222.1902 C 95.792339,222.99639 96.514539,222.77662 99.470539,213.39893 C 101.55534,206.78515 105.46744,203.57089 113.64334,201.75438 C 122.01834,199.89359 128.48394,202.08843 139.45671,210.51709 C 145.72343,215.33084 151.35616,217.27387 162.11845,218.33436 C 168.25496,218.93904 168.95249,218.79958 171.80745,216.3973 C 173.49949,214.97354 175.34844,212.56203 175.91623,211.0384 C 178.55658,203.95318 181.29583,193.80498 180.98613,192.25576 C 184.93123,185.97216 186.84597,186.15725 193.09612,193.504 C 195.83577,195.28372 198.83748,198.20872 199.76657,200.004 C 202.51865,205.32182 203.47434,216.66086 203.598,245.46289 C 203.598,245.46289 203.67768,265.56866 204.96476,270.65763 C 206.25184,275.7466 208.32355,279.46289 208.32355,279.46289 C 210.85838,283.20578 214.37737,289.19315 216.14354,292.76815 C 217.9097,296.34315 220.51636,300.50565 221.93611,302.01815 C 224.47621,304.72418 224.71081,304.76815 236.60788,304.76815 C 250.66413,304.76815 251.95083,304.21872 254.6346,297.07065 C 255.62632,294.42927 257.90931,289.31568 259.70792,285.70711 C 263.09404,278.91352 264.79762,277.16373 285.54154,259.17282 C 295.71135,250.35269 303.71078,241.55585 306.36995,236.26815 C 307.19973,234.61815 308.46693,230.93038 309.18594,228.0731 C 310.34403,223.47095 310.28013,222.17423 308.626,216.711 C 306.95426,211.18963 306.91293,210.26927 308.23126,207.92051 C 310.92229,203.1261 317.94909,201.41008 324.92809,203.84297 C 328.67785,205.15015 330.71686,208.10145 332.95951,215.46784 C 335.13662,222.61894 338.27367,225.20952 343.5561,224.21853 C 347.01484,223.56967 350.84147,221.27082 363.50249,212.23574 C 370.04404,207.5676 374.13015,207.555 378.76385,212.1887 C 382.10784,215.53269 382.18,215.77977 381.98774,223.22687 C 381.72385,233.44825 382.47423,234.16314 393.92791,234.60237 C 404.13597,234.99384 420.79161,232.72116 434.01183,229.13288 C 445.33461,226.05961 449.05179,226.47663 453.94417,231.36902 C 457.18626,234.61111 457.36113,235.12782 456.93901,240.21802 C 456.41062,246.58976 453.40835,251.11367 446.59905,255.7986 C 439.58434,260.62485 434.71489,261.16624 383.88277,262.7715 C 361.48988,263.47866 346.69333,263.53264 342.29555,262.9232 C 330.16049,261.24154 324.99979,260.96507 303.12185,277.31283 C 294.9095,283.44931 286.34987,290.5303 283.93529,293.39557 C 281.52072,296.26085 271.1433,315.22495 271.1433,317.84674 C 271.1433,318.81249 273.68332,322.67738 276.78779,326.4354 C 279.89226,330.19341 283.80981,336.19315 285.49346,339.76815 C 288.33591,345.80373 288.56965,347.15026 288.76485,358.61403 L 288.97506,370.9599 L 292.80918,376.22619 C 294.91795,379.12266 298.4433,383.76331 300.6433,386.53877 C 302.8433,389.31422 306.2183,394.19416 308.1433,397.38307 C 313.58092,406.39092 321.31737,414.03083 332.44203,421.37862 C 347.84303,431.55092 349.75829,431.97748 379.50511,431.86029 C 393.17911,431.80642 408.32927,431.31349 413.17213,430.76488 C 424.87611,429.43904 450.79016,429.3771 460.1433,430.65262 C 464.2683,431.21515 473.4933,432.61089 480.6433,433.75426 C 487.7933,434.89762 496.15801,436.22402 499.23154,436.70181 C 502.30507,437.1796 507.17059,438.85248 510.04381,440.41933 C 512.91702,441.98618 517.15232,444.3003 519.45557,445.56181 C 524.1929,448.1565 527.16889,447.97141 534.76931,444.60938 C 538.86162,442.79916 540.87208,442.58657 550.06217,442.99226 C 562.292,443.53215 566.10783,444.85073 572.50514,450.74757 C 576.42821,454.36372 583.07867,465.76618 585.50318,473.03316 C 586.21541,475.16793 590.71602,477.03854 593.22447,476.24239 C 594.22382,475.92521 596.52688,474.27658 598.34238,472.57877 C 603.1751,468.05935 605.65592,466.6439 607.5024,467.35245 C 609.38804,468.07604 609.32681,467.71494 609.36495,478.33564 C 609.40176,488.58378 608.96252,489.83193 604.46191,492.26815 C 601.31933,493.96925 600.5997,495.02073 599.64668,499.30386 C 599.03042,502.0735 598.1885,504.886 597.77574,505.55386 C 596.51676,507.59094 591.31915,506.9129 587.17602,504.1711 C 583.92573,502.02016 582.56813,501.68953 579.27265,502.2463 C 575.9891,502.80105 574.91962,502.54447 573.15335,500.7782 C 570.64858,498.27343 570.98283,495.45666 574.74314,487.38087 C 578.29942,479.74327 577.93124,474.72178 573.19517,466.26815 C 566.13636,453.66856 560.01324,449.51542 548.59318,449.5813 C 535.61851,449.65615 532.40992,454.55598 537.72836,466.17298 C 544.22023,480.35308 545.80634,500.64742 542.8933,532.2582 C 540.36681,559.67436 540.7808,588.18604 544.10589,615.76815 C 544.89174,622.28689 544.76814,628.23066 543.57561,641.26815 C 540.93971,670.08558 538.81081,676.15258 529.87481,680.31295 C 523.27444,683.38592 516.94152,683.47477 511.92166,680.56483 z M 203.57978,432.06038 C 207.14485,430.2377 214.10378,424.97654 215.85017,422.78361 C 216.51396,421.95011 218.05953,418.79315 219.28478,415.76815 C 223.18225,406.14579 225.12677,404.40001 239.99841,397.17159 C 247.5031,393.5239 255.4433,389.08585 257.6433,387.30926 C 262.65719,383.26032 266.95027,380.86336 269.69052,379.47571 C 271.6542,378.48131 272.57932,377.52402 275.74568,371.81226 C 280.51411,363.21053 280.6433,361.68495 280.6433,355.25734 C 280.6433,348.78302 280.29994,347.64645 276.1564,340.40498 C 267.50829,325.2911 252.35512,314.15245 239.30772,313.3186 C 223.35654,312.29918 212.66245,318.57389 203.60307,334.26815 C 202.01565,337.01815 199.28455,341.29315 197.53395,343.76815 C 193.34193,349.69485 189.29991,359.501 187.50943,368.08818 C 186.71439,371.90124 185.34017,376.42055 184.45562,378.13108 C 182.79578,381.34086 172.58008,394.40068 171.29517,394.95549 C 170.89691,395.12745 169.50438,396.78652 168.20067,398.64231 C 165.27818,402.80239 165.1839,408.2326 167.90974,415.40011 C 171.30542,424.32895 178.17885,431.31101 186.09652,433.87433 C 189.62181,435.01563 199.88156,433.95114 203.57978,432.06038 z M 186.8933,411.68805 C 184.32555,410.19248 184.71367,407.76815 187.52086,407.76815 C 190.18447,407.76815 192.65796,410.1264 191.67037,411.72435 C 190.86611,413.02566 189.16769,413.01276 186.8933,411.68805 z M 290.6433,277.67065 C 293.56146,275.3611 301.02762,269.78972 307.60845,265.38044 C 314.47478,260.77986 321.50607,256.87134 324.10845,256.2085 C 327.21421,255.41744 339.35789,255.14021 362.6433,255.32878 C 396.6145,255.60388 425.05796,254.55279 434.81614,252.66172 C 439.02027,251.84699 440.75248,250.83094 444.06614,247.23605 C 448.48812,242.43876 448.98576,240.41592 446.58661,236.99066 C 444.52649,234.04942 440.73575,234.13289 430.64331,237.3417 C 420.39515,240.60002 396.04053,242.6261 387.5701,240.925 C 376.40241,238.6822 371.40137,234.21277 372.42059,227.38587 C 373.6342,219.25691 369.25498,217.61181 361.71922,223.36579 C 355.73538,227.93479 346.22673,231.8194 340.75799,231.92917 C 333.82278,232.06837 330.3887,229.58823 326.92981,221.94224 C 325.26923,218.27149 323.41554,214.95639 322.81048,214.57535 C 321.00282,213.43696 319.34217,215.61914 318.62467,220.07572 C 316.65081,232.33582 314.01341,239.27 308.66242,246.26815 C 305.7186,250.11815 302.035,254.3617 300.47666,255.69826 C 292.57402,262.47616 267.80211,283.77978 265.30023,287.97743 C 263.25246,291.41318 258.46842,304.68756 260.66061,306.80158 C 263.17314,309.22452 264.45373,307.12365 270.41061,300.85607 C 275.64816,295.34535 286.44432,280.9939 290.6433,277.67065 z M 199.3428,272.76815 C 196.26237,264.16867 198.87319,228.13148 195.25797,214.27325 C 194.27322,210.4984 193.43747,206.63375 192.64963,205.8459 C 190.2365,203.43278 186.75151,205.8703 184.68412,211.41725 C 179.36425,225.69082 170.86359,229.20434 152.37416,224.7717 C 143.14201,222.5584 137.62643,220.06871 134.6433,216.76815 C 129.95884,211.5852 119.52204,208.54021 114.11634,210.7793 C 110.41144,212.31395 109.14334,214.48141 109.14334,219.27933 C 109.14334,221.9484 108.38374,223.68159 106.30134,225.76398 C 101.55904,230.50622 96.934739,231.26569 72.643339,231.29179 C 49.289738,231.31689 44.143338,232.12999 44.143338,235.79455 C 44.143338,238.21633 46.787438,240.76815 49.296738,240.76815 C 50.402538,240.76815 54.757938,242.00565 58.975339,243.51815 C 66.278339,246.13725 67.424439,246.25893 83.053839,246.07454 C 92.079539,245.96805 106.70454,245.13225 115.55384,244.2172 C 127.49834,242.98208 135.44888,242.73476 146.41545,243.25717 C 168.51208,244.30977 173.6804,246.20836 185.02447,257.44021 C 191.93109,263.43014 190.49875,267.43948 198.31697,288.46891 C 199.45499,292.70875 201.70412,300.2623 205.79733,304.35552 C 209.46227,308.02045 209.91081,308.2015 212.0183,306.86657 C 212.77455,306.38754 213.82541,304.76928 213.3933,303.4205 C 207.1433,283.91161 202.2724,280.94657 199.3428,272.76815 z"
       sodipodi:nodetypes="cssssccssccsssccsssssssssssssssssssssccssssssssssssssssssssssssssssssssssssssssssssssssssssssssssssssssssssscccssssssssssccsczcsssssssssssssssssssssssszssscccssssssssssssssssssssssssssssssssccsssssssssssssssssccssccsssssssssssssssssssscsssssssssssssssccscsz" />
  </g>
</svg>
